<?xml version="1.0" encoding="UTF-8"?>
<svg xmlns="http://www.w3.org/2000/svg" xmlns:xlink="http://www.w3.org/1999/xlink" width="2000" height="2000" viewBox="0 0 2000 2000">
<defs>
<clipPath id="clip-0">
<path clip-rule="nonzero" d="M 1022 464 L 1210 464 L 1210 652 L 1022 652 Z M 1022 464 "/>
</clipPath>
<clipPath id="clip-1">
<path clip-rule="nonzero" d="M 1115.761719 651.738281 C 1063.980469 651.738281 1022 609.761719 1022 557.980469 C 1022 506.199219 1063.980469 464.21875 1115.761719 464.21875 C 1083.828125 479.160156 1061.699219 511.578125 1061.699219 549.179688 C 1061.699219 559.589844 1063.398438 569.609375 1066.53125 578.96875 C 1066.421875 578.851562 1066.300781 578.730469 1066.191406 578.609375 C 1062.289062 574.53125 1058.039062 570.601562 1052.851562 568.390625 C 1050.371094 567.339844 1047.621094 566.738281 1044.921875 566.738281 C 1041.980469 566.738281 1039.078125 567.449219 1036.621094 569.078125 C 1031.921875 572.199219 1030.691406 578.710938 1033.578125 586.550781 C 1044.910156 617.289062 1074.808594 640.308594 1107.421875 643.421875 C 1109.988281 643.660156 1112.558594 643.78125 1115.128906 643.78125 C 1122.359375 643.78125 1129.570312 642.828125 1136.570312 641.039062 C 1142.671875 642.289062 1148.988281 642.941406 1155.460938 642.941406 C 1185.871094 628.710938 1207.390625 598.640625 1209.378906 563.339844 C 1206.601562 612.628906 1165.75 651.738281 1115.761719 651.738281 M 1209.378906 563.339844 C 1209.378906 563.230469 1209.390625 563.128906 1209.390625 563.03125 C 1209.390625 563.128906 1209.378906 563.238281 1209.378906 563.339844 M 1209.398438 563.011719 C 1209.398438 562.96875 1209.398438 562.941406 1209.398438 562.910156 C 1209.398438 562.941406 1209.398438 562.96875 1209.398438 563.011719 M 1209.398438 562.898438 C 1209.410156 562.800781 1209.410156 562.699219 1209.421875 562.601562 C 1209.410156 562.699219 1209.410156 562.800781 1209.398438 562.898438 M 1209.421875 562.558594 C 1209.421875 562.53125 1209.421875 562.5 1209.421875 562.46875 C 1209.421875 562.5 1209.421875 562.53125 1209.421875 562.558594 M 1209.421875 562.441406 C 1209.429688 562.390625 1209.429688 562.339844 1209.429688 562.28125 C 1209.429688 562.328125 1209.429688 562.390625 1209.421875 562.441406 M 1209.429688 562.238281 C 1209.429688 562.210938 1209.441406 562.191406 1209.441406 562.160156 C 1209.441406 562.191406 1209.429688 562.21875 1209.429688 562.238281 M 1209.441406 562.121094 C 1209.441406 562.058594 1209.441406 562 1209.449219 561.949219 C 1209.441406 562.011719 1209.441406 562.058594 1209.441406 562.121094 M 1209.449219 561.921875 C 1209.449219 561.898438 1209.449219 561.878906 1209.449219 561.851562 C 1209.449219 561.878906 1209.449219 561.898438 1209.449219 561.921875 M 1209.449219 561.789062 C 1209.449219 561.769531 1209.449219 561.75 1209.449219 561.71875 C 1209.449219 561.75 1209.449219 561.769531 1209.449219 561.789062 M 1209.460938 561.660156 C 1209.460938 561.628906 1209.460938 561.589844 1209.460938 561.558594 C 1209.460938 561.589844 1209.460938 561.621094 1209.460938 561.660156 M 1209.460938 561.46875 C 1209.460938 561.460938 1209.46875 561.441406 1209.46875 561.421875 C 1209.46875 561.441406 1209.460938 561.460938 1209.460938 561.46875 M 1209.46875 561.339844 C 1209.46875 561.320312 1209.46875 561.300781 1209.46875 561.28125 C 1209.46875 561.300781 1209.46875 561.320312 1209.46875 561.339844 M 1209.46875 561.171875 C 1209.480469 561.148438 1209.480469 561.128906 1209.480469 561.109375 C 1209.480469 561.128906 1209.480469 561.148438 1209.46875 561.171875 M 1209.480469 561.03125 C 1209.480469 561.011719 1209.480469 560.988281 1209.480469 560.96875 C 1209.480469 560.988281 1209.480469 561.011719 1209.480469 561.03125 M 1209.480469 560.890625 C 1209.480469 560.871094 1209.480469 560.859375 1209.488281 560.839844 C 1209.480469 560.859375 1209.480469 560.878906 1209.480469 560.890625 M 1209.488281 560.71875 C 1209.488281 560.699219 1209.488281 560.679688 1209.488281 560.671875 C 1209.488281 560.691406 1209.488281 560.699219 1209.488281 560.71875 M 1209.488281 560.578125 C 1209.488281 560.558594 1209.488281 560.550781 1209.488281 560.53125 C 1209.488281 560.539062 1209.488281 560.558594 1209.488281 560.578125 M 1209.5 560.441406 C 1209.5 560.410156 1209.5 560.390625 1209.5 560.371094 C 1209.5 560.390625 1209.5 560.410156 1209.5 560.441406 M 1209.5 560.269531 C 1209.5 560.25 1209.5 560.238281 1209.5 560.21875 C 1209.5 560.230469 1209.5 560.261719 1209.5 560.269531 M 1209.5 560.128906 C 1209.5 560.121094 1209.5 560.101562 1209.5 560.078125 C 1209.5 560.101562 1209.5 560.121094 1209.5 560.128906 M 1209.511719 559.960938 C 1209.511719 559.941406 1209.511719 559.929688 1209.511719 559.921875 C 1209.511719 559.929688 1209.511719 559.941406 1209.511719 559.960938 M 1209.511719 559.820312 C 1209.511719 559.808594 1209.511719 559.789062 1209.511719 559.769531 C 1209.511719 559.789062 1209.511719 559.800781 1209.511719 559.820312 M 1209.511719 559.671875 C 1209.511719 559.660156 1209.511719 559.648438 1209.511719 559.640625 C 1209.511719 559.648438 1209.511719 559.660156 1209.511719 559.671875 M 1209.519531 559.511719 C 1209.519531 559.488281 1209.519531 559.480469 1209.519531 559.46875 C 1209.519531 559.480469 1209.519531 559.488281 1209.519531 559.511719 M 1209.519531 559.371094 C 1209.519531 559.351562 1209.519531 559.339844 1209.519531 559.328125 C 1209.519531 559.339844 1209.519531 559.351562 1209.519531 559.371094 M 1209.519531 559.210938 C 1209.519531 559.199219 1209.519531 559.191406 1209.519531 559.179688 C 1209.519531 559.191406 1209.519531 559.199219 1209.519531 559.210938 M 1209.519531 559.058594 C 1209.519531 559.039062 1209.519531 559.03125 1209.519531 559.019531 C 1209.519531 559.03125 1209.519531 559.039062 1209.519531 559.058594 M 1209.519531 558.910156 C 1209.519531 558.898438 1209.519531 558.890625 1209.519531 558.878906 C 1209.519531 558.890625 1209.519531 558.898438 1209.519531 558.910156 M 1209.519531 558.738281 C 1209.53125 558.730469 1209.53125 558.71875 1209.53125 558.71875 C 1209.53125 558.730469 1209.53125 558.730469 1209.519531 558.738281 M 1209.53125 558.609375 C 1209.53125 558.589844 1209.53125 558.578125 1209.53125 558.558594 C 1209.53125 558.578125 1209.53125 558.601562 1209.53125 558.609375 M 1209.53125 558.460938 C 1209.53125 558.449219 1209.53125 558.441406 1209.53125 558.429688 C 1209.53125 558.441406 1209.53125 558.449219 1209.53125 558.460938 M 1209.53125 558.300781 C 1209.53125 558.28125 1209.53125 558.269531 1209.53125 558.261719 C 1209.53125 558.269531 1209.53125 558.28125 1209.53125 558.300781 M 1209.53125 558.160156 C 1209.53125 558.140625 1209.53125 558.128906 1209.53125 558.109375 C 1209.53125 558.128906 1209.53125 558.140625 1209.53125 558.160156 M 1209.53125 557.980469 C 1209.53125 556.941406 1209.511719 555.910156 1209.480469 554.878906 C 1209.511719 555.910156 1209.53125 556.941406 1209.53125 557.980469 M 1184.121094 493.800781 C 1184.121094 493.800781 1184.121094 493.800781 1184.121094 493.789062 C 1184.121094 493.800781 1184.121094 493.800781 1184.121094 493.800781 M 1183.550781 493.199219 C 1183.53125 493.179688 1183.511719 493.160156 1183.5 493.140625 C 1183.511719 493.160156 1183.53125 493.179688 1183.550781 493.199219 M 1182.070312 491.679688 C 1182.058594 491.671875 1182.050781 491.660156 1182.039062 491.660156 C 1182.050781 491.660156 1182.058594 491.671875 1182.070312 491.679688 M 1181.871094 491.480469 C 1181.859375 491.480469 1181.859375 491.480469 1181.859375 491.46875 C 1181.859375 491.480469 1181.859375 491.480469 1181.871094 491.480469 M 1181.671875 491.289062 C 1181.609375 491.21875 1181.539062 491.160156 1181.480469 491.101562 C 1181.539062 491.160156 1181.609375 491.21875 1181.671875 491.289062 M 1181.46875 491.089844 C 1181.449219 491.070312 1181.421875 491.039062 1181.398438 491.019531 C 1181.421875 491.039062 1181.449219 491.070312 1181.46875 491.089844 M 1181.371094 490.988281 C 1164.558594 474.53125 1141.589844 464.339844 1116.238281 464.21875 C 1141.589844 464.339844 1164.558594 474.53125 1181.371094 490.988281 M 1116.21875 464.21875 C 1116.171875 464.21875 1116.121094 464.21875 1116.070312 464.21875 C 1116.121094 464.21875 1116.171875 464.21875 1116.21875 464.21875 M 1116.070312 464.21875 C 1115.980469 464.21875 1115.898438 464.21875 1115.808594 464.21875 C 1115.898438 464.21875 1115.980469 464.21875 1116.070312 464.21875 "/>
</clipPath>
<clipPath id="clip-2">
<path clip-rule="nonzero" d="M 1115.761719 651.738281 C 1063.980469 651.738281 1022 609.761719 1022 557.980469 C 1022 506.199219 1063.980469 464.21875 1115.761719 464.21875 C 1083.828125 479.160156 1061.699219 511.578125 1061.699219 549.179688 C 1061.699219 559.589844 1063.398438 569.609375 1066.53125 578.96875 C 1066.421875 578.851562 1066.300781 578.730469 1066.191406 578.609375 C 1062.289062 574.53125 1058.039062 570.601562 1052.851562 568.390625 C 1050.371094 567.339844 1047.621094 566.738281 1044.921875 566.738281 C 1041.980469 566.738281 1039.078125 567.449219 1036.621094 569.078125 C 1031.921875 572.199219 1030.691406 578.710938 1033.578125 586.550781 C 1044.910156 617.289062 1074.808594 640.308594 1107.421875 643.421875 C 1109.988281 643.660156 1112.558594 643.78125 1115.128906 643.78125 C 1122.359375 643.78125 1129.570312 642.828125 1136.570312 641.039062 C 1142.671875 642.289062 1148.988281 642.941406 1155.460938 642.941406 C 1185.871094 628.710938 1207.390625 598.640625 1209.378906 563.339844 C 1206.601562 612.628906 1165.75 651.738281 1115.761719 651.738281 M 1209.378906 563.339844 C 1209.378906 563.230469 1209.390625 563.128906 1209.390625 563.03125 C 1209.390625 563.128906 1209.378906 563.238281 1209.378906 563.339844 M 1209.398438 563.011719 C 1209.398438 562.96875 1209.398438 562.941406 1209.398438 562.910156 C 1209.398438 562.941406 1209.398438 562.96875 1209.398438 563.011719 M 1209.398438 562.898438 C 1209.410156 562.800781 1209.410156 562.699219 1209.421875 562.601562 C 1209.410156 562.699219 1209.410156 562.800781 1209.398438 562.898438 M 1209.421875 562.558594 C 1209.421875 562.53125 1209.421875 562.5 1209.421875 562.46875 C 1209.421875 562.5 1209.421875 562.53125 1209.421875 562.558594 M 1209.421875 562.441406 C 1209.429688 562.390625 1209.429688 562.339844 1209.429688 562.28125 C 1209.429688 562.328125 1209.429688 562.390625 1209.421875 562.441406 M 1209.429688 562.238281 C 1209.429688 562.210938 1209.441406 562.191406 1209.441406 562.160156 C 1209.441406 562.191406 1209.429688 562.21875 1209.429688 562.238281 M 1209.441406 562.121094 C 1209.441406 562.058594 1209.441406 562 1209.449219 561.949219 C 1209.441406 562.011719 1209.441406 562.058594 1209.441406 562.121094 M 1209.449219 561.921875 C 1209.449219 561.898438 1209.449219 561.878906 1209.449219 561.851562 C 1209.449219 561.878906 1209.449219 561.898438 1209.449219 561.921875 M 1209.449219 561.789062 C 1209.449219 561.769531 1209.449219 561.75 1209.449219 561.71875 C 1209.449219 561.75 1209.449219 561.769531 1209.449219 561.789062 M 1209.460938 561.660156 C 1209.460938 561.628906 1209.460938 561.589844 1209.460938 561.558594 C 1209.460938 561.589844 1209.460938 561.621094 1209.460938 561.660156 M 1209.460938 561.46875 C 1209.460938 561.460938 1209.46875 561.441406 1209.46875 561.421875 C 1209.46875 561.441406 1209.460938 561.460938 1209.460938 561.46875 M 1209.46875 561.339844 C 1209.46875 561.320312 1209.46875 561.300781 1209.46875 561.28125 C 1209.46875 561.300781 1209.46875 561.320312 1209.46875 561.339844 M 1209.46875 561.171875 C 1209.480469 561.148438 1209.480469 561.128906 1209.480469 561.109375 C 1209.480469 561.128906 1209.480469 561.148438 1209.46875 561.171875 M 1209.480469 561.03125 C 1209.480469 561.011719 1209.480469 560.988281 1209.480469 560.96875 C 1209.480469 560.988281 1209.480469 561.011719 1209.480469 561.03125 M 1209.480469 560.890625 C 1209.480469 560.871094 1209.480469 560.859375 1209.488281 560.839844 C 1209.480469 560.859375 1209.480469 560.878906 1209.480469 560.890625 M 1209.488281 560.71875 C 1209.488281 560.699219 1209.488281 560.679688 1209.488281 560.671875 C 1209.488281 560.691406 1209.488281 560.699219 1209.488281 560.71875 M 1209.488281 560.578125 C 1209.488281 560.558594 1209.488281 560.550781 1209.488281 560.53125 C 1209.488281 560.539062 1209.488281 560.558594 1209.488281 560.578125 M 1209.5 560.441406 C 1209.5 560.410156 1209.5 560.390625 1209.5 560.371094 C 1209.5 560.390625 1209.5 560.410156 1209.5 560.441406 M 1209.5 560.269531 C 1209.5 560.25 1209.5 560.238281 1209.5 560.21875 C 1209.5 560.230469 1209.5 560.261719 1209.5 560.269531 M 1209.5 560.128906 C 1209.5 560.121094 1209.5 560.101562 1209.5 560.078125 C 1209.5 560.101562 1209.5 560.121094 1209.5 560.128906 M 1209.511719 559.960938 C 1209.511719 559.941406 1209.511719 559.929688 1209.511719 559.921875 C 1209.511719 559.929688 1209.511719 559.941406 1209.511719 559.960938 M 1209.511719 559.820312 C 1209.511719 559.808594 1209.511719 559.789062 1209.511719 559.769531 C 1209.511719 559.789062 1209.511719 559.800781 1209.511719 559.820312 M 1209.511719 559.671875 C 1209.511719 559.660156 1209.511719 559.648438 1209.511719 559.640625 C 1209.511719 559.648438 1209.511719 559.660156 1209.511719 559.671875 M 1209.519531 559.511719 C 1209.519531 559.488281 1209.519531 559.480469 1209.519531 559.46875 C 1209.519531 559.480469 1209.519531 559.488281 1209.519531 559.511719 M 1209.519531 559.371094 C 1209.519531 559.351562 1209.519531 559.339844 1209.519531 559.328125 C 1209.519531 559.339844 1209.519531 559.351562 1209.519531 559.371094 M 1209.519531 559.210938 C 1209.519531 559.199219 1209.519531 559.191406 1209.519531 559.179688 C 1209.519531 559.191406 1209.519531 559.199219 1209.519531 559.210938 M 1209.519531 559.058594 C 1209.519531 559.039062 1209.519531 559.03125 1209.519531 559.019531 C 1209.519531 559.03125 1209.519531 559.039062 1209.519531 559.058594 M 1209.519531 558.910156 C 1209.519531 558.898438 1209.519531 558.890625 1209.519531 558.878906 C 1209.519531 558.890625 1209.519531 558.898438 1209.519531 558.910156 M 1209.519531 558.738281 C 1209.53125 558.730469 1209.53125 558.71875 1209.53125 558.71875 C 1209.53125 558.730469 1209.53125 558.730469 1209.519531 558.738281 M 1209.53125 558.609375 C 1209.53125 558.589844 1209.53125 558.578125 1209.53125 558.558594 C 1209.53125 558.578125 1209.53125 558.601562 1209.53125 558.609375 M 1209.53125 558.460938 C 1209.53125 558.449219 1209.53125 558.441406 1209.53125 558.429688 C 1209.53125 558.441406 1209.53125 558.449219 1209.53125 558.460938 M 1209.53125 558.300781 C 1209.53125 558.28125 1209.53125 558.269531 1209.53125 558.261719 C 1209.53125 558.269531 1209.53125 558.28125 1209.53125 558.300781 M 1209.53125 558.160156 C 1209.53125 558.140625 1209.53125 558.128906 1209.53125 558.109375 C 1209.53125 558.128906 1209.53125 558.140625 1209.53125 558.160156 M 1209.53125 557.980469 C 1209.53125 556.941406 1209.511719 555.910156 1209.480469 554.878906 C 1209.511719 555.910156 1209.53125 556.941406 1209.53125 557.980469 M 1184.121094 493.800781 C 1184.121094 493.800781 1184.121094 493.800781 1184.121094 493.789062 C 1184.121094 493.800781 1184.121094 493.800781 1184.121094 493.800781 M 1183.550781 493.199219 C 1183.53125 493.179688 1183.511719 493.160156 1183.5 493.140625 C 1183.511719 493.160156 1183.53125 493.179688 1183.550781 493.199219 M 1182.070312 491.679688 C 1182.058594 491.671875 1182.050781 491.660156 1182.039062 491.660156 C 1182.050781 491.660156 1182.058594 491.671875 1182.070312 491.679688 M 1181.871094 491.480469 C 1181.859375 491.480469 1181.859375 491.480469 1181.859375 491.46875 C 1181.859375 491.480469 1181.859375 491.480469 1181.871094 491.480469 M 1181.671875 491.289062 C 1181.609375 491.21875 1181.539062 491.160156 1181.480469 491.101562 C 1181.539062 491.160156 1181.609375 491.21875 1181.671875 491.289062 M 1181.46875 491.089844 C 1181.449219 491.070312 1181.421875 491.039062 1181.398438 491.019531 C 1181.421875 491.039062 1181.449219 491.070312 1181.46875 491.089844 M 1181.371094 490.988281 C 1164.558594 474.53125 1141.589844 464.339844 1116.238281 464.21875 C 1141.589844 464.339844 1164.558594 474.53125 1181.371094 490.988281 M 1116.21875 464.21875 C 1116.171875 464.21875 1116.121094 464.21875 1116.070312 464.21875 C 1116.121094 464.21875 1116.171875 464.21875 1116.21875 464.21875 M 1116.070312 464.21875 C 1115.980469 464.21875 1115.898438 464.21875 1115.808594 464.21875 C 1115.898438 464.21875 1115.980469 464.21875 1116.070312 464.21875 "/>
</clipPath>
<linearGradient id="linear-pattern-0" gradientUnits="userSpaceOnUse" x1="-0.17669" y1="0" x2="1.143761" y2="0" gradientTransform="matrix(110.307, 163.418, -163.418, 110.307, 1062.43, 478.96)">
<stop offset="0" stop-color="rgb(100%, 46.273804%, 1.960754%)" stop-opacity="1"/>
<stop offset="0.125" stop-color="rgb(100%, 46.273804%, 1.960754%)" stop-opacity="1"/>
<stop offset="0.1875" stop-color="rgb(100%, 46.313477%, 1.957703%)" stop-opacity="1"/>
<stop offset="0.25" stop-color="rgb(100%, 46.548462%, 1.94397%)" stop-opacity="1"/>
<stop offset="0.28125" stop-color="rgb(100%, 46.910095%, 1.922607%)" stop-opacity="1"/>
<stop offset="0.296875" stop-color="rgb(100%, 47.183228%, 1.907349%)" stop-opacity="1"/>
<stop offset="0.3125" stop-color="rgb(100%, 47.406006%, 1.893616%)" stop-opacity="1"/>
<stop offset="0.328125" stop-color="rgb(100%, 47.654724%, 1.879883%)" stop-opacity="1"/>
<stop offset="0.34375" stop-color="rgb(100%, 47.932434%, 1.863098%)" stop-opacity="1"/>
<stop offset="0.359375" stop-color="rgb(100%, 48.239136%, 1.844788%)" stop-opacity="1"/>
<stop offset="0.375" stop-color="rgb(100%, 48.574829%, 1.824951%)" stop-opacity="1"/>
<stop offset="0.390625" stop-color="rgb(100%, 48.942566%, 1.805115%)" stop-opacity="1"/>
<stop offset="0.398438" stop-color="rgb(100%, 49.234009%, 1.78833%)" stop-opacity="1"/>
<stop offset="0.40625" stop-color="rgb(100%, 49.440002%, 1.776123%)" stop-opacity="1"/>
<stop offset="0.414063" stop-color="rgb(100%, 49.653625%, 1.763916%)" stop-opacity="1"/>
<stop offset="0.421875" stop-color="rgb(100%, 49.876404%, 1.750183%)" stop-opacity="1"/>
<stop offset="0.429688" stop-color="rgb(100%, 50.105286%, 1.73645%)" stop-opacity="1"/>
<stop offset="0.4375" stop-color="rgb(100%, 50.343323%, 1.722717%)" stop-opacity="1"/>
<stop offset="0.445312" stop-color="rgb(100%, 50.590515%, 1.708984%)" stop-opacity="1"/>
<stop offset="0.453125" stop-color="rgb(100%, 50.843811%, 1.693726%)" stop-opacity="1"/>
<stop offset="0.460938" stop-color="rgb(100%, 51.106262%, 1.678467%)" stop-opacity="1"/>
<stop offset="0.46875" stop-color="rgb(100%, 51.377869%, 1.663208%)" stop-opacity="1"/>
<stop offset="0.476562" stop-color="rgb(100%, 51.655579%, 1.646423%)" stop-opacity="1"/>
<stop offset="0.484375" stop-color="rgb(100%, 51.94397%, 1.629639%)" stop-opacity="1"/>
<stop offset="0.492188" stop-color="rgb(100%, 52.23999%, 1.612854%)" stop-opacity="1"/>
<stop offset="0.5" stop-color="rgb(100%, 52.54364%, 1.594543%)" stop-opacity="1"/>
<stop offset="0.507812" stop-color="rgb(100%, 52.856445%, 1.577759%)" stop-opacity="1"/>
<stop offset="0.515625" stop-color="rgb(100%, 53.178406%, 1.557922%)" stop-opacity="1"/>
<stop offset="0.523438" stop-color="rgb(100%, 53.507996%, 1.539612%)" stop-opacity="1"/>
<stop offset="0.53125" stop-color="rgb(100%, 53.846741%, 1.519775%)" stop-opacity="1"/>
<stop offset="0.539062" stop-color="rgb(100%, 54.193115%, 1.498413%)" stop-opacity="1"/>
<stop offset="0.546875" stop-color="rgb(100%, 54.550171%, 1.478577%)" stop-opacity="1"/>
<stop offset="0.554688" stop-color="rgb(100%, 54.914856%, 1.457214%)" stop-opacity="1"/>
<stop offset="0.5625" stop-color="rgb(100%, 55.288696%, 1.435852%)" stop-opacity="1"/>
<stop offset="0.570313" stop-color="rgb(100%, 55.671692%, 1.412964%)" stop-opacity="1"/>
<stop offset="0.574219" stop-color="rgb(100%, 56.063843%, 1.390076%)" stop-opacity="1"/>
<stop offset="0.578125" stop-color="rgb(100%, 56.262207%, 1.379395%)" stop-opacity="1"/>
<stop offset="0.582031" stop-color="rgb(100%, 56.463623%, 1.367188%)" stop-opacity="1"/>
<stop offset="0.585938" stop-color="rgb(100%, 56.666565%, 1.356506%)" stop-opacity="1"/>
<stop offset="0.589844" stop-color="rgb(100%, 56.874084%, 1.344299%)" stop-opacity="1"/>
<stop offset="0.59375" stop-color="rgb(100%, 57.081604%, 1.332092%)" stop-opacity="1"/>
<stop offset="0.597656" stop-color="rgb(100%, 57.293701%, 1.319885%)" stop-opacity="1"/>
<stop offset="0.601562" stop-color="rgb(100%, 57.505798%, 1.307678%)" stop-opacity="1"/>
<stop offset="0.605469" stop-color="rgb(100%, 57.720947%, 1.293945%)" stop-opacity="1"/>
<stop offset="0.609375" stop-color="rgb(100%, 57.937622%, 1.281738%)" stop-opacity="1"/>
<stop offset="0.613281" stop-color="rgb(100%, 58.158875%, 1.268005%)" stop-opacity="1"/>
<stop offset="0.617188" stop-color="rgb(100%, 58.380127%, 1.255798%)" stop-opacity="1"/>
<stop offset="0.621094" stop-color="rgb(100%, 58.604431%, 1.242065%)" stop-opacity="1"/>
<stop offset="0.625" stop-color="rgb(100%, 58.830261%, 1.229858%)" stop-opacity="1"/>
<stop offset="0.628906" stop-color="rgb(100%, 59.060669%, 1.216125%)" stop-opacity="1"/>
<stop offset="0.632812" stop-color="rgb(100%, 59.291077%, 1.203918%)" stop-opacity="1"/>
<stop offset="0.636719" stop-color="rgb(100%, 59.526062%, 1.190186%)" stop-opacity="1"/>
<stop offset="0.640625" stop-color="rgb(100%, 59.761047%, 1.176453%)" stop-opacity="1"/>
<stop offset="0.644531" stop-color="rgb(100%, 60.00061%, 1.161194%)" stop-opacity="1"/>
<stop offset="0.648438" stop-color="rgb(100%, 60.240173%, 1.147461%)" stop-opacity="1"/>
<stop offset="0.652344" stop-color="rgb(100%, 60.484314%, 1.133728%)" stop-opacity="1"/>
<stop offset="0.65625" stop-color="rgb(100%, 60.728455%, 1.119995%)" stop-opacity="1"/>
<stop offset="0.660156" stop-color="rgb(100%, 60.977173%, 1.104736%)" stop-opacity="1"/>
<stop offset="0.664062" stop-color="rgb(100%, 61.225891%, 1.091003%)" stop-opacity="1"/>
<stop offset="0.667969" stop-color="rgb(100%, 61.479187%, 1.075745%)" stop-opacity="1"/>
<stop offset="0.671875" stop-color="rgb(100%, 61.734009%, 1.060486%)" stop-opacity="1"/>
<stop offset="0.675781" stop-color="rgb(100%, 61.991882%, 1.045227%)" stop-opacity="1"/>
<stop offset="0.679687" stop-color="rgb(100%, 62.251282%, 1.031494%)" stop-opacity="1"/>
<stop offset="0.683594" stop-color="rgb(100%, 62.513733%, 1.016235%)" stop-opacity="1"/>
<stop offset="0.6875" stop-color="rgb(100%, 62.77771%, 1.000977%)" stop-opacity="1"/>
<stop offset="0.691406" stop-color="rgb(100%, 63.044739%, 0.984192%)" stop-opacity="1"/>
<stop offset="0.695312" stop-color="rgb(100%, 63.313293%, 0.968933%)" stop-opacity="1"/>
<stop offset="0.699219" stop-color="rgb(100%, 63.586426%, 0.952148%)" stop-opacity="1"/>
<stop offset="0.703125" stop-color="rgb(100%, 63.859558%, 0.93689%)" stop-opacity="1"/>
<stop offset="0.707031" stop-color="rgb(100%, 64.137268%, 0.920105%)" stop-opacity="1"/>
<stop offset="0.710938" stop-color="rgb(100%, 64.414978%, 0.904846%)" stop-opacity="1"/>
<stop offset="0.714844" stop-color="rgb(100%, 64.697266%, 0.888062%)" stop-opacity="1"/>
<stop offset="0.71875" stop-color="rgb(100%, 64.981079%, 0.872803%)" stop-opacity="1"/>
<stop offset="0.722656" stop-color="rgb(100%, 65.267944%, 0.856018%)" stop-opacity="1"/>
<stop offset="0.726562" stop-color="rgb(100%, 65.556335%, 0.839233%)" stop-opacity="1"/>
<stop offset="0.730469" stop-color="rgb(100%, 65.847778%, 0.822449%)" stop-opacity="1"/>
<stop offset="0.734375" stop-color="rgb(100%, 66.140747%, 0.805664%)" stop-opacity="1"/>
<stop offset="0.738281" stop-color="rgb(100%, 66.438293%, 0.787354%)" stop-opacity="1"/>
<stop offset="0.742188" stop-color="rgb(100%, 66.73584%, 0.770569%)" stop-opacity="1"/>
<stop offset="0.746094" stop-color="rgb(100%, 67.037964%, 0.752258%)" stop-opacity="1"/>
<stop offset="0.75" stop-color="rgb(100%, 67.340088%, 0.735474%)" stop-opacity="1"/>
<stop offset="0.753906" stop-color="rgb(100%, 67.64679%, 0.717163%)" stop-opacity="1"/>
<stop offset="0.757812" stop-color="rgb(100%, 67.953491%, 0.698853%)" stop-opacity="1"/>
<stop offset="0.761719" stop-color="rgb(100%, 68.266296%, 0.680542%)" stop-opacity="1"/>
<stop offset="0.765625" stop-color="rgb(100%, 68.579102%, 0.663757%)" stop-opacity="1"/>
<stop offset="0.769531" stop-color="rgb(100%, 68.894958%, 0.643921%)" stop-opacity="1"/>
<stop offset="0.773438" stop-color="rgb(100%, 69.212341%, 0.62561%)" stop-opacity="1"/>
<stop offset="0.777344" stop-color="rgb(100%, 69.534302%, 0.6073%)" stop-opacity="1"/>
<stop offset="0.78125" stop-color="rgb(100%, 69.857788%, 0.588989%)" stop-opacity="1"/>
<stop offset="0.785156" stop-color="rgb(100%, 70.184326%, 0.569153%)" stop-opacity="1"/>
<stop offset="0.789062" stop-color="rgb(100%, 70.510864%, 0.550842%)" stop-opacity="1"/>
<stop offset="0.792969" stop-color="rgb(100%, 70.843506%, 0.531006%)" stop-opacity="1"/>
<stop offset="0.796875" stop-color="rgb(100%, 71.176147%, 0.512695%)" stop-opacity="1"/>
<stop offset="0.800781" stop-color="rgb(100%, 71.513367%, 0.492859%)" stop-opacity="1"/>
<stop offset="0.804688" stop-color="rgb(100%, 71.850586%, 0.473022%)" stop-opacity="1"/>
<stop offset="0.808594" stop-color="rgb(100%, 72.192383%, 0.453186%)" stop-opacity="1"/>
<stop offset="0.8125" stop-color="rgb(100%, 72.535706%, 0.43335%)" stop-opacity="1"/>
<stop offset="0.816406" stop-color="rgb(100%, 72.88208%, 0.411987%)" stop-opacity="1"/>
<stop offset="0.820313" stop-color="rgb(100%, 73.22998%, 0.392151%)" stop-opacity="1"/>
<stop offset="0.824219" stop-color="rgb(100%, 73.582458%, 0.372314%)" stop-opacity="1"/>
<stop offset="0.828125" stop-color="rgb(100%, 73.934937%, 0.352478%)" stop-opacity="1"/>
<stop offset="0.832031" stop-color="rgb(100%, 74.291992%, 0.331116%)" stop-opacity="1"/>
<stop offset="0.835938" stop-color="rgb(100%, 74.650574%, 0.309753%)" stop-opacity="1"/>
<stop offset="0.839844" stop-color="rgb(100%, 75.013733%, 0.288391%)" stop-opacity="1"/>
<stop offset="0.84375" stop-color="rgb(100%, 75.376892%, 0.268555%)" stop-opacity="1"/>
<stop offset="0.847656" stop-color="rgb(100%, 75.744629%, 0.247192%)" stop-opacity="1"/>
<stop offset="0.851562" stop-color="rgb(100%, 76.112366%, 0.22583%)" stop-opacity="1"/>
<stop offset="0.855469" stop-color="rgb(100%, 76.48468%, 0.202942%)" stop-opacity="1"/>
<stop offset="0.859375" stop-color="rgb(100%, 76.858521%, 0.18158%)" stop-opacity="1"/>
<stop offset="0.863281" stop-color="rgb(100%, 77.236938%, 0.158691%)" stop-opacity="1"/>
<stop offset="0.867188" stop-color="rgb(100%, 77.615356%, 0.137329%)" stop-opacity="1"/>
<stop offset="0.871094" stop-color="rgb(100%, 77.998352%, 0.114441%)" stop-opacity="1"/>
<stop offset="0.875" stop-color="rgb(100%, 78.382874%, 0.0930786%)" stop-opacity="1"/>
<stop offset="0.878906" stop-color="rgb(100%, 78.770447%, 0.0701904%)" stop-opacity="1"/>
<stop offset="0.882812" stop-color="rgb(100%, 79.159546%, 0.0473022%)" stop-opacity="1"/>
<stop offset="0.886719" stop-color="rgb(100%, 79.553223%, 0.0244141%)" stop-opacity="1"/>
<stop offset="0.890625" stop-color="rgb(100%, 79.948425%, 0.00152588%)" stop-opacity="1"/>
<stop offset="0.90625" stop-color="rgb(100%, 79.972839%, 0%)" stop-opacity="1"/>
<stop offset="0.9375" stop-color="rgb(100%, 79.998779%, 0%)" stop-opacity="1"/>
<stop offset="1" stop-color="rgb(100%, 79.998779%, 0%)" stop-opacity="1"/>
</linearGradient>
<clipPath id="clip-3">
<path clip-rule="nonzero" d="M 1032 566 L 1137 566 L 1137 644 L 1032 644 Z M 1032 566 "/>
</clipPath>
<clipPath id="clip-4">
<path clip-rule="nonzero" d="M 1115.128906 643.78125 C 1112.558594 643.78125 1109.988281 643.660156 1107.421875 643.421875 C 1074.808594 640.308594 1044.910156 617.289062 1033.578125 586.550781 C 1030.691406 578.710938 1031.921875 572.199219 1036.621094 569.078125 C 1039.078125 567.449219 1041.980469 566.738281 1044.921875 566.738281 C 1047.621094 566.738281 1050.371094 567.339844 1052.851562 568.390625 C 1058.039062 570.601562 1062.289062 574.53125 1066.191406 578.609375 C 1066.300781 578.730469 1066.421875 578.851562 1066.53125 578.96875 C 1077.039062 610.328125 1103.660156 634.308594 1136.570312 641.039062 C 1129.570312 642.828125 1122.359375 643.78125 1115.128906 643.78125 "/>
</clipPath>
<clipPath id="clip-5">
<path clip-rule="nonzero" d="M 1115.128906 643.78125 C 1112.558594 643.78125 1109.988281 643.660156 1107.421875 643.421875 C 1074.808594 640.308594 1044.910156 617.289062 1033.578125 586.550781 C 1030.691406 578.710938 1031.921875 572.199219 1036.621094 569.078125 C 1039.078125 567.449219 1041.980469 566.738281 1044.921875 566.738281 C 1047.621094 566.738281 1050.371094 567.339844 1052.851562 568.390625 C 1058.039062 570.601562 1062.289062 574.53125 1066.191406 578.609375 C 1066.300781 578.730469 1066.421875 578.851562 1066.53125 578.96875 C 1077.039062 610.328125 1103.660156 634.308594 1136.570312 641.039062 C 1129.570312 642.828125 1122.359375 643.78125 1115.128906 643.78125 "/>
</clipPath>
<linearGradient id="linear-pattern-1" gradientUnits="userSpaceOnUse" x1="0.278951" y1="0" x2="0.903266" y2="0" gradientTransform="matrix(110.307, 163.418, -163.418, 110.307, 1062.43, 478.96)">
<stop offset="0" stop-color="rgb(100%, 57.96051%, 20.306396%)" stop-opacity="1"/>
<stop offset="0.03125" stop-color="rgb(100%, 58.084106%, 20.298767%)" stop-opacity="1"/>
<stop offset="0.0625" stop-color="rgb(100%, 58.343506%, 20.283508%)" stop-opacity="1"/>
<stop offset="0.09375" stop-color="rgb(100%, 58.625793%, 20.26825%)" stop-opacity="1"/>
<stop offset="0.125" stop-color="rgb(100%, 58.929443%, 20.251465%)" stop-opacity="1"/>
<stop offset="0.15625" stop-color="rgb(100%, 59.254456%, 20.231628%)" stop-opacity="1"/>
<stop offset="0.1875" stop-color="rgb(100%, 59.603882%, 20.211792%)" stop-opacity="1"/>
<stop offset="0.21875" stop-color="rgb(100%, 59.977722%, 20.19043%)" stop-opacity="1"/>
<stop offset="0.234375" stop-color="rgb(100%, 60.270691%, 20.173645%)" stop-opacity="1"/>
<stop offset="0.25" stop-color="rgb(100%, 60.475159%, 20.162964%)" stop-opacity="1"/>
<stop offset="0.265625" stop-color="rgb(100%, 60.684204%, 20.150757%)" stop-opacity="1"/>
<stop offset="0.28125" stop-color="rgb(100%, 60.900879%, 20.13855%)" stop-opacity="1"/>
<stop offset="0.296875" stop-color="rgb(100%, 61.123657%, 20.124817%)" stop-opacity="1"/>
<stop offset="0.3125" stop-color="rgb(100%, 61.352539%, 20.11261%)" stop-opacity="1"/>
<stop offset="0.328125" stop-color="rgb(100%, 61.585999%, 20.098877%)" stop-opacity="1"/>
<stop offset="0.34375" stop-color="rgb(100%, 61.827087%, 20.085144%)" stop-opacity="1"/>
<stop offset="0.359375" stop-color="rgb(100%, 62.07428%, 20.071411%)" stop-opacity="1"/>
<stop offset="0.375" stop-color="rgb(100%, 62.327576%, 20.056152%)" stop-opacity="1"/>
<stop offset="0.390625" stop-color="rgb(100%, 62.588501%, 20.042419%)" stop-opacity="1"/>
<stop offset="0.40625" stop-color="rgb(100%, 62.854004%, 20.027161%)" stop-opacity="1"/>
<stop offset="0.421875" stop-color="rgb(100%, 63.12561%, 20.010376%)" stop-opacity="1"/>
<stop offset="0.4375" stop-color="rgb(100%, 63.404846%, 19.995117%)" stop-opacity="1"/>
<stop offset="0.453125" stop-color="rgb(100%, 63.690186%, 19.978333%)" stop-opacity="1"/>
<stop offset="0.46875" stop-color="rgb(100%, 63.981628%, 19.961548%)" stop-opacity="1"/>
<stop offset="0.484375" stop-color="rgb(100%, 64.280701%, 19.944763%)" stop-opacity="1"/>
<stop offset="0.5" stop-color="rgb(100%, 64.585876%, 19.927979%)" stop-opacity="1"/>
<stop offset="0.515625" stop-color="rgb(100%, 64.897156%, 19.909668%)" stop-opacity="1"/>
<stop offset="0.53125" stop-color="rgb(100%, 65.214539%, 19.891357%)" stop-opacity="1"/>
<stop offset="0.546875" stop-color="rgb(100%, 65.539551%, 19.873047%)" stop-opacity="1"/>
<stop offset="0.5625" stop-color="rgb(100%, 65.870667%, 19.85321%)" stop-opacity="1"/>
<stop offset="0.578125" stop-color="rgb(100%, 66.209412%, 19.8349%)" stop-opacity="1"/>
<stop offset="0.59375" stop-color="rgb(100%, 66.55426%, 19.815063%)" stop-opacity="1"/>
<stop offset="0.609375" stop-color="rgb(100%, 66.905212%, 19.795227%)" stop-opacity="1"/>
<stop offset="0.625" stop-color="rgb(100%, 67.263794%, 19.773865%)" stop-opacity="1"/>
<stop offset="0.640625" stop-color="rgb(100%, 67.628479%, 19.754028%)" stop-opacity="1"/>
<stop offset="0.65625" stop-color="rgb(100%, 68.000793%, 19.732666%)" stop-opacity="1"/>
<stop offset="0.671875" stop-color="rgb(100%, 68.379211%, 19.711304%)" stop-opacity="1"/>
<stop offset="0.6875" stop-color="rgb(100%, 68.765259%, 19.688416%)" stop-opacity="1"/>
<stop offset="0.695312" stop-color="rgb(100%, 69.058228%, 19.671631%)" stop-opacity="1"/>
<stop offset="0.703125" stop-color="rgb(100%, 69.256592%, 19.66095%)" stop-opacity="1"/>
<stop offset="0.710938" stop-color="rgb(100%, 69.456482%, 19.648743%)" stop-opacity="1"/>
<stop offset="0.71875" stop-color="rgb(100%, 69.657898%, 19.638062%)" stop-opacity="1"/>
<stop offset="0.726563" stop-color="rgb(100%, 69.86084%, 19.625854%)" stop-opacity="1"/>
<stop offset="0.734375" stop-color="rgb(100%, 70.065308%, 19.613647%)" stop-opacity="1"/>
<stop offset="0.742187" stop-color="rgb(100%, 70.272827%, 19.602966%)" stop-opacity="1"/>
<stop offset="0.75" stop-color="rgb(100%, 70.481873%, 19.590759%)" stop-opacity="1"/>
<stop offset="0.757813" stop-color="rgb(100%, 70.692444%, 19.578552%)" stop-opacity="1"/>
<stop offset="0.765625" stop-color="rgb(100%, 70.903015%, 19.566345%)" stop-opacity="1"/>
<stop offset="0.773437" stop-color="rgb(100%, 71.116638%, 19.554138%)" stop-opacity="1"/>
<stop offset="0.78125" stop-color="rgb(100%, 71.333313%, 19.541931%)" stop-opacity="1"/>
<stop offset="0.789062" stop-color="rgb(100%, 71.549988%, 19.529724%)" stop-opacity="1"/>
<stop offset="0.796875" stop-color="rgb(100%, 71.769714%, 19.517517%)" stop-opacity="1"/>
<stop offset="0.804688" stop-color="rgb(100%, 71.990967%, 19.503784%)" stop-opacity="1"/>
<stop offset="0.8125" stop-color="rgb(100%, 72.213745%, 19.491577%)" stop-opacity="1"/>
<stop offset="0.820312" stop-color="rgb(100%, 72.438049%, 19.477844%)" stop-opacity="1"/>
<stop offset="0.828125" stop-color="rgb(100%, 72.663879%, 19.465637%)" stop-opacity="1"/>
<stop offset="0.835938" stop-color="rgb(100%, 72.892761%, 19.451904%)" stop-opacity="1"/>
<stop offset="0.84375" stop-color="rgb(100%, 73.121643%, 19.439697%)" stop-opacity="1"/>
<stop offset="0.851563" stop-color="rgb(100%, 73.353577%, 19.425964%)" stop-opacity="1"/>
<stop offset="0.859375" stop-color="rgb(100%, 73.587036%, 19.412231%)" stop-opacity="1"/>
<stop offset="0.867187" stop-color="rgb(100%, 73.822021%, 19.398499%)" stop-opacity="1"/>
<stop offset="0.875" stop-color="rgb(100%, 74.060059%, 19.386292%)" stop-opacity="1"/>
<stop offset="0.882813" stop-color="rgb(100%, 74.298096%, 19.372559%)" stop-opacity="1"/>
<stop offset="0.890625" stop-color="rgb(100%, 74.539185%, 19.358826%)" stop-opacity="1"/>
<stop offset="0.898437" stop-color="rgb(100%, 74.780273%, 19.345093%)" stop-opacity="1"/>
<stop offset="0.90625" stop-color="rgb(100%, 75.024414%, 19.329834%)" stop-opacity="1"/>
<stop offset="0.914062" stop-color="rgb(100%, 75.271606%, 19.316101%)" stop-opacity="1"/>
<stop offset="0.921875" stop-color="rgb(100%, 75.518799%, 19.302368%)" stop-opacity="1"/>
<stop offset="0.929688" stop-color="rgb(100%, 75.769043%, 19.288635%)" stop-opacity="1"/>
<stop offset="0.9375" stop-color="rgb(100%, 76.020813%, 19.273376%)" stop-opacity="1"/>
<stop offset="0.945312" stop-color="rgb(100%, 76.274109%, 19.259644%)" stop-opacity="1"/>
<stop offset="0.953125" stop-color="rgb(100%, 76.528931%, 19.244385%)" stop-opacity="1"/>
<stop offset="0.960938" stop-color="rgb(100%, 76.786804%, 19.230652%)" stop-opacity="1"/>
<stop offset="0.96875" stop-color="rgb(100%, 77.046204%, 19.215393%)" stop-opacity="1"/>
<stop offset="0.976563" stop-color="rgb(100%, 77.305603%, 19.200134%)" stop-opacity="1"/>
<stop offset="0.984375" stop-color="rgb(100%, 77.568054%, 19.184875%)" stop-opacity="1"/>
<stop offset="0.992187" stop-color="rgb(100%, 77.833557%, 19.171143%)" stop-opacity="1"/>
<stop offset="1" stop-color="rgb(100%, 78.09906%, 19.155884%)" stop-opacity="1"/>
</linearGradient>
<clipPath id="clip-6">
<path clip-rule="nonzero" d="M 1294 464 L 1482 464 L 1482 652 L 1294 652 Z M 1294 464 "/>
</clipPath>
<clipPath id="clip-7">
<path clip-rule="nonzero" d="M 1388.199219 651.738281 C 1338.210938 651.738281 1297.359375 612.628906 1294.589844 563.339844 C 1296.570312 598.640625 1318.089844 628.710938 1348.5 642.941406 C 1354.96875 642.941406 1361.289062 642.289062 1367.390625 641.039062 C 1374.390625 642.828125 1381.601562 643.78125 1388.828125 643.78125 C 1391.398438 643.78125 1393.980469 643.660156 1396.539062 643.421875 C 1429.160156 640.308594 1459.050781 617.289062 1470.390625 586.550781 C 1473.28125 578.710938 1472.039062 572.199219 1467.339844 569.078125 C 1464.878906 567.449219 1461.988281 566.738281 1459.039062 566.738281 C 1456.339844 566.738281 1453.601562 567.339844 1451.121094 568.390625 C 1445.921875 570.601562 1441.671875 574.53125 1437.78125 578.609375 C 1437.660156 578.730469 1437.539062 578.851562 1437.429688 578.96875 C 1440.558594 569.609375 1442.261719 559.589844 1442.261719 549.179688 C 1442.261719 511.578125 1420.128906 479.160156 1388.199219 464.21875 C 1439.980469 464.21875 1481.960938 506.199219 1481.960938 557.980469 C 1481.960938 609.761719 1439.980469 651.738281 1388.199219 651.738281 M 1294.589844 563.339844 C 1294.578125 563.230469 1294.570312 563.128906 1294.570312 563.03125 C 1294.570312 563.128906 1294.578125 563.230469 1294.589844 563.339844 M 1294.570312 563.011719 C 1294.570312 562.980469 1294.558594 562.941406 1294.558594 562.910156 C 1294.558594 562.941406 1294.570312 562.96875 1294.570312 563.011719 M 1294.558594 562.878906 C 1294.558594 562.820312 1294.550781 562.761719 1294.550781 562.699219 C 1294.550781 562.761719 1294.558594 562.820312 1294.558594 562.878906 M 1294.550781 562.691406 C 1294.550781 562.660156 1294.550781 562.628906 1294.550781 562.601562 C 1294.550781 562.628906 1294.550781 562.660156 1294.550781 562.691406 M 1294.539062 562.558594 C 1294.539062 562.53125 1294.539062 562.5 1294.539062 562.480469 C 1294.539062 562.5 1294.539062 562.53125 1294.539062 562.558594 M 1294.539062 562.441406 C 1294.539062 562.390625 1294.53125 562.328125 1294.53125 562.28125 C 1294.53125 562.339844 1294.539062 562.390625 1294.539062 562.441406 M 1294.53125 562.238281 C 1294.53125 562.210938 1294.53125 562.191406 1294.53125 562.160156 C 1294.53125 562.191406 1294.53125 562.210938 1294.53125 562.238281 M 1294.519531 562.109375 C 1294.519531 562.078125 1294.519531 562.058594 1294.519531 562.039062 C 1294.519531 562.058594 1294.519531 562.078125 1294.519531 562.109375 M 1294.519531 561.921875 C 1294.519531 561.898438 1294.511719 561.878906 1294.511719 561.859375 C 1294.511719 561.878906 1294.519531 561.898438 1294.519531 561.921875 M 1294.511719 561.789062 C 1294.511719 561.769531 1294.511719 561.75 1294.511719 561.71875 C 1294.511719 561.75 1294.511719 561.769531 1294.511719 561.789062 M 1294.511719 561.648438 C 1294.5 561.621094 1294.5 561.589844 1294.5 561.558594 C 1294.5 561.589844 1294.5 561.621094 1294.511719 561.648438 M 1294.5 561.480469 C 1294.5 561.460938 1294.5 561.441406 1294.5 561.410156 C 1294.5 561.441406 1294.5 561.460938 1294.5 561.480469 M 1294.488281 561.339844 C 1294.488281 561.320312 1294.488281 561.300781 1294.488281 561.28125 C 1294.488281 561.300781 1294.488281 561.320312 1294.488281 561.339844 M 1294.488281 561.171875 C 1294.488281 561.148438 1294.488281 561.128906 1294.488281 561.109375 C 1294.488281 561.128906 1294.488281 561.148438 1294.488281 561.171875 M 1294.480469 561.03125 C 1294.480469 561.011719 1294.480469 560.988281 1294.480469 560.96875 C 1294.480469 560.988281 1294.480469 561.011719 1294.480469 561.03125 M 1294.480469 560.890625 C 1294.480469 560.871094 1294.480469 560.851562 1294.480469 560.839844 C 1294.480469 560.851562 1294.480469 560.871094 1294.480469 560.890625 M 1294.46875 560.71875 C 1294.46875 560.699219 1294.46875 560.679688 1294.46875 560.671875 C 1294.46875 560.679688 1294.46875 560.699219 1294.46875 560.71875 M 1294.46875 560.578125 C 1294.46875 560.570312 1294.46875 560.539062 1294.46875 560.53125 C 1294.46875 560.550781 1294.46875 560.558594 1294.46875 560.578125 M 1294.46875 560.421875 C 1294.46875 560.410156 1294.46875 560.398438 1294.46875 560.398438 C 1294.46875 560.410156 1294.46875 560.410156 1294.46875 560.421875 M 1294.460938 560.269531 C 1294.460938 560.25 1294.460938 560.230469 1294.460938 560.21875 C 1294.460938 560.230469 1294.460938 560.25 1294.460938 560.269531 M 1294.460938 560.128906 C 1294.460938 560.109375 1294.460938 560.101562 1294.460938 560.078125 C 1294.460938 560.101562 1294.460938 560.109375 1294.460938 560.128906 M 1294.460938 559.960938 C 1294.449219 559.941406 1294.449219 559.929688 1294.449219 559.921875 C 1294.449219 559.929688 1294.449219 559.941406 1294.460938 559.960938 M 1294.449219 559.820312 C 1294.449219 559.800781 1294.449219 559.789062 1294.449219 559.769531 C 1294.449219 559.789062 1294.449219 559.800781 1294.449219 559.820312 M 1294.449219 559.671875 C 1294.449219 559.660156 1294.449219 559.648438 1294.449219 559.640625 C 1294.449219 559.648438 1294.449219 559.660156 1294.449219 559.671875 M 1294.449219 559.511719 C 1294.449219 559.488281 1294.449219 559.480469 1294.449219 559.46875 C 1294.449219 559.480469 1294.449219 559.488281 1294.449219 559.511719 M 1294.441406 559.371094 C 1294.441406 559.351562 1294.441406 559.339844 1294.441406 559.328125 C 1294.441406 559.339844 1294.441406 559.351562 1294.441406 559.371094 M 1294.441406 559.050781 C 1294.441406 559.039062 1294.441406 559.03125 1294.441406 559.019531 C 1294.441406 559.03125 1294.441406 559.039062 1294.441406 559.050781 M 1294.441406 558.910156 C 1294.441406 558.898438 1294.441406 558.890625 1294.441406 558.878906 C 1294.441406 558.890625 1294.441406 558.898438 1294.441406 558.910156 M 1294.441406 558.738281 C 1294.441406 558.738281 1294.441406 558.730469 1294.441406 558.71875 C 1294.441406 558.730469 1294.441406 558.738281 1294.441406 558.738281 M 1294.441406 558.601562 C 1294.441406 558.589844 1294.441406 558.578125 1294.441406 558.570312 C 1294.441406 558.578125 1294.441406 558.589844 1294.441406 558.601562 M 1294.441406 558.460938 C 1294.441406 558.449219 1294.441406 558.441406 1294.441406 558.429688 C 1294.441406 558.441406 1294.441406 558.449219 1294.441406 558.460938 M 1294.441406 558.289062 C 1294.441406 558.28125 1294.441406 558.269531 1294.441406 558.261719 C 1294.441406 558.269531 1294.441406 558.28125 1294.441406 558.289062 M 1294.429688 558.160156 C 1294.429688 558.140625 1294.429688 558.128906 1294.429688 558.121094 C 1294.429688 558.128906 1294.429688 558.140625 1294.429688 558.160156 M 1294.429688 557.980469 C 1294.429688 557.101562 1294.449219 556.230469 1294.46875 555.359375 C 1294.449219 556.230469 1294.429688 557.101562 1294.429688 557.980469 M 1294.628906 551.808594 C 1294.640625 551.699219 1294.648438 551.578125 1294.660156 551.46875 C 1294.648438 551.578125 1294.640625 551.699219 1294.628906 551.808594 M 1386.230469 464.238281 C 1386.230469 464.238281 1386.230469 464.238281 1386.238281 464.238281 C 1386.230469 464.238281 1386.230469 464.238281 1386.230469 464.238281 M 1386.53125 464.230469 C 1386.539062 464.230469 1386.539062 464.230469 1386.550781 464.230469 C 1386.539062 464.230469 1386.539062 464.230469 1386.53125 464.230469 M 1387.289062 464.21875 L 1387.300781 464.21875 L 1387.289062 464.21875 M 1387.589844 464.21875 C 1387.601562 464.21875 1387.609375 464.21875 1387.621094 464.21875 C 1387.609375 464.21875 1387.601562 464.21875 1387.589844 464.21875 M 1387.890625 464.21875 C 1387.921875 464.21875 1387.949219 464.21875 1387.980469 464.21875 C 1387.949219 464.21875 1387.921875 464.21875 1387.890625 464.21875 M 1388.039062 464.21875 C 1388.070312 464.21875 1388.109375 464.21875 1388.140625 464.21875 C 1388.101562 464.21875 1388.078125 464.21875 1388.039062 464.21875 "/>
</clipPath>
<clipPath id="clip-8">
<path clip-rule="nonzero" d="M 1388.199219 651.738281 C 1338.210938 651.738281 1297.359375 612.628906 1294.589844 563.339844 C 1296.570312 598.640625 1318.089844 628.710938 1348.5 642.941406 C 1354.96875 642.941406 1361.289062 642.289062 1367.390625 641.039062 C 1374.390625 642.828125 1381.601562 643.78125 1388.828125 643.78125 C 1391.398438 643.78125 1393.980469 643.660156 1396.539062 643.421875 C 1429.160156 640.308594 1459.050781 617.289062 1470.390625 586.550781 C 1473.28125 578.710938 1472.039062 572.199219 1467.339844 569.078125 C 1464.878906 567.449219 1461.988281 566.738281 1459.039062 566.738281 C 1456.339844 566.738281 1453.601562 567.339844 1451.121094 568.390625 C 1445.921875 570.601562 1441.671875 574.53125 1437.78125 578.609375 C 1437.660156 578.730469 1437.539062 578.851562 1437.429688 578.96875 C 1440.558594 569.609375 1442.261719 559.589844 1442.261719 549.179688 C 1442.261719 511.578125 1420.128906 479.160156 1388.199219 464.21875 C 1439.980469 464.21875 1481.960938 506.199219 1481.960938 557.980469 C 1481.960938 609.761719 1439.980469 651.738281 1388.199219 651.738281 M 1294.589844 563.339844 C 1294.578125 563.230469 1294.570312 563.128906 1294.570312 563.03125 C 1294.570312 563.128906 1294.578125 563.230469 1294.589844 563.339844 M 1294.570312 563.011719 C 1294.570312 562.980469 1294.558594 562.941406 1294.558594 562.910156 C 1294.558594 562.941406 1294.570312 562.96875 1294.570312 563.011719 M 1294.558594 562.878906 C 1294.558594 562.820312 1294.550781 562.761719 1294.550781 562.699219 C 1294.550781 562.761719 1294.558594 562.820312 1294.558594 562.878906 M 1294.550781 562.691406 C 1294.550781 562.660156 1294.550781 562.628906 1294.550781 562.601562 C 1294.550781 562.628906 1294.550781 562.660156 1294.550781 562.691406 M 1294.539062 562.558594 C 1294.539062 562.53125 1294.539062 562.5 1294.539062 562.480469 C 1294.539062 562.5 1294.539062 562.53125 1294.539062 562.558594 M 1294.539062 562.441406 C 1294.539062 562.390625 1294.53125 562.328125 1294.53125 562.28125 C 1294.53125 562.339844 1294.539062 562.390625 1294.539062 562.441406 M 1294.53125 562.238281 C 1294.53125 562.210938 1294.53125 562.191406 1294.53125 562.160156 C 1294.53125 562.191406 1294.53125 562.210938 1294.53125 562.238281 M 1294.519531 562.109375 C 1294.519531 562.078125 1294.519531 562.058594 1294.519531 562.039062 C 1294.519531 562.058594 1294.519531 562.078125 1294.519531 562.109375 M 1294.519531 561.921875 C 1294.519531 561.898438 1294.511719 561.878906 1294.511719 561.859375 C 1294.511719 561.878906 1294.519531 561.898438 1294.519531 561.921875 M 1294.511719 561.789062 C 1294.511719 561.769531 1294.511719 561.75 1294.511719 561.71875 C 1294.511719 561.75 1294.511719 561.769531 1294.511719 561.789062 M 1294.511719 561.648438 C 1294.5 561.621094 1294.5 561.589844 1294.5 561.558594 C 1294.5 561.589844 1294.5 561.621094 1294.511719 561.648438 M 1294.5 561.480469 C 1294.5 561.460938 1294.5 561.441406 1294.5 561.410156 C 1294.5 561.441406 1294.5 561.460938 1294.5 561.480469 M 1294.488281 561.339844 C 1294.488281 561.320312 1294.488281 561.300781 1294.488281 561.28125 C 1294.488281 561.300781 1294.488281 561.320312 1294.488281 561.339844 M 1294.488281 561.171875 C 1294.488281 561.148438 1294.488281 561.128906 1294.488281 561.109375 C 1294.488281 561.128906 1294.488281 561.148438 1294.488281 561.171875 M 1294.480469 561.03125 C 1294.480469 561.011719 1294.480469 560.988281 1294.480469 560.96875 C 1294.480469 560.988281 1294.480469 561.011719 1294.480469 561.03125 M 1294.480469 560.890625 C 1294.480469 560.871094 1294.480469 560.851562 1294.480469 560.839844 C 1294.480469 560.851562 1294.480469 560.871094 1294.480469 560.890625 M 1294.46875 560.71875 C 1294.46875 560.699219 1294.46875 560.679688 1294.46875 560.671875 C 1294.46875 560.679688 1294.46875 560.699219 1294.46875 560.71875 M 1294.46875 560.578125 C 1294.46875 560.570312 1294.46875 560.539062 1294.46875 560.53125 C 1294.46875 560.550781 1294.46875 560.558594 1294.46875 560.578125 M 1294.46875 560.421875 C 1294.46875 560.410156 1294.46875 560.398438 1294.46875 560.398438 C 1294.46875 560.410156 1294.46875 560.410156 1294.46875 560.421875 M 1294.460938 560.269531 C 1294.460938 560.25 1294.460938 560.230469 1294.460938 560.21875 C 1294.460938 560.230469 1294.460938 560.25 1294.460938 560.269531 M 1294.460938 560.128906 C 1294.460938 560.109375 1294.460938 560.101562 1294.460938 560.078125 C 1294.460938 560.101562 1294.460938 560.109375 1294.460938 560.128906 M 1294.460938 559.960938 C 1294.449219 559.941406 1294.449219 559.929688 1294.449219 559.921875 C 1294.449219 559.929688 1294.449219 559.941406 1294.460938 559.960938 M 1294.449219 559.820312 C 1294.449219 559.800781 1294.449219 559.789062 1294.449219 559.769531 C 1294.449219 559.789062 1294.449219 559.800781 1294.449219 559.820312 M 1294.449219 559.671875 C 1294.449219 559.660156 1294.449219 559.648438 1294.449219 559.640625 C 1294.449219 559.648438 1294.449219 559.660156 1294.449219 559.671875 M 1294.449219 559.511719 C 1294.449219 559.488281 1294.449219 559.480469 1294.449219 559.46875 C 1294.449219 559.480469 1294.449219 559.488281 1294.449219 559.511719 M 1294.441406 559.371094 C 1294.441406 559.351562 1294.441406 559.339844 1294.441406 559.328125 C 1294.441406 559.339844 1294.441406 559.351562 1294.441406 559.371094 M 1294.441406 559.050781 C 1294.441406 559.039062 1294.441406 559.03125 1294.441406 559.019531 C 1294.441406 559.03125 1294.441406 559.039062 1294.441406 559.050781 M 1294.441406 558.910156 C 1294.441406 558.898438 1294.441406 558.890625 1294.441406 558.878906 C 1294.441406 558.890625 1294.441406 558.898438 1294.441406 558.910156 M 1294.441406 558.738281 C 1294.441406 558.738281 1294.441406 558.730469 1294.441406 558.71875 C 1294.441406 558.730469 1294.441406 558.738281 1294.441406 558.738281 M 1294.441406 558.601562 C 1294.441406 558.589844 1294.441406 558.578125 1294.441406 558.570312 C 1294.441406 558.578125 1294.441406 558.589844 1294.441406 558.601562 M 1294.441406 558.460938 C 1294.441406 558.449219 1294.441406 558.441406 1294.441406 558.429688 C 1294.441406 558.441406 1294.441406 558.449219 1294.441406 558.460938 M 1294.441406 558.289062 C 1294.441406 558.28125 1294.441406 558.269531 1294.441406 558.261719 C 1294.441406 558.269531 1294.441406 558.28125 1294.441406 558.289062 M 1294.429688 558.160156 C 1294.429688 558.140625 1294.429688 558.128906 1294.429688 558.121094 C 1294.429688 558.128906 1294.429688 558.140625 1294.429688 558.160156 M 1294.429688 557.980469 C 1294.429688 557.101562 1294.449219 556.230469 1294.46875 555.359375 C 1294.449219 556.230469 1294.429688 557.101562 1294.429688 557.980469 M 1294.628906 551.808594 C 1294.640625 551.699219 1294.648438 551.578125 1294.660156 551.46875 C 1294.648438 551.578125 1294.640625 551.699219 1294.628906 551.808594 M 1386.230469 464.238281 C 1386.230469 464.238281 1386.230469 464.238281 1386.238281 464.238281 C 1386.230469 464.238281 1386.230469 464.238281 1386.230469 464.238281 M 1386.53125 464.230469 C 1386.539062 464.230469 1386.539062 464.230469 1386.550781 464.230469 C 1386.539062 464.230469 1386.539062 464.230469 1386.53125 464.230469 M 1387.289062 464.21875 L 1387.300781 464.21875 L 1387.289062 464.21875 M 1387.589844 464.21875 C 1387.601562 464.21875 1387.609375 464.21875 1387.621094 464.21875 C 1387.609375 464.21875 1387.601562 464.21875 1387.589844 464.21875 M 1387.890625 464.21875 C 1387.921875 464.21875 1387.949219 464.21875 1387.980469 464.21875 C 1387.949219 464.21875 1387.921875 464.21875 1387.890625 464.21875 M 1388.039062 464.21875 C 1388.070312 464.21875 1388.109375 464.21875 1388.140625 464.21875 C 1388.101562 464.21875 1388.078125 464.21875 1388.039062 464.21875 "/>
</clipPath>
<linearGradient id="linear-pattern-2" gradientUnits="userSpaceOnUse" x1="-0.176662" y1="0" x2="1.14379" y2="0" gradientTransform="matrix(-110.307, 163.418, 163.418, 110.307, 1441.54, 478.96)">
<stop offset="0" stop-color="rgb(100%, 46.273804%, 1.960754%)" stop-opacity="1"/>
<stop offset="0.25" stop-color="rgb(100%, 46.458435%, 1.948547%)" stop-opacity="1"/>
<stop offset="0.28125" stop-color="rgb(100%, 46.786499%, 1.930237%)" stop-opacity="1"/>
<stop offset="0.3125" stop-color="rgb(100%, 47.122192%, 1.9104%)" stop-opacity="1"/>
<stop offset="0.328125" stop-color="rgb(100%, 47.431946%, 1.89209%)" stop-opacity="1"/>
<stop offset="0.34375" stop-color="rgb(100%, 47.677612%, 1.878357%)" stop-opacity="1"/>
<stop offset="0.359375" stop-color="rgb(100%, 47.953796%, 1.861572%)" stop-opacity="1"/>
<stop offset="0.375" stop-color="rgb(100%, 48.257446%, 1.844788%)" stop-opacity="1"/>
<stop offset="0.390625" stop-color="rgb(100%, 48.59314%, 1.824951%)" stop-opacity="1"/>
<stop offset="0.40625" stop-color="rgb(100%, 48.959351%, 1.803589%)" stop-opacity="1"/>
<stop offset="0.414062" stop-color="rgb(100%, 49.250793%, 1.786804%)" stop-opacity="1"/>
<stop offset="0.421875" stop-color="rgb(100%, 49.456787%, 1.774597%)" stop-opacity="1"/>
<stop offset="0.429687" stop-color="rgb(100%, 49.671936%, 1.76239%)" stop-opacity="1"/>
<stop offset="0.4375" stop-color="rgb(100%, 49.894714%, 1.748657%)" stop-opacity="1"/>
<stop offset="0.445312" stop-color="rgb(100%, 50.126648%, 1.734924%)" stop-opacity="1"/>
<stop offset="0.453125" stop-color="rgb(100%, 50.366211%, 1.721191%)" stop-opacity="1"/>
<stop offset="0.460937" stop-color="rgb(100%, 50.614929%, 1.707458%)" stop-opacity="1"/>
<stop offset="0.46875" stop-color="rgb(100%, 50.871277%, 1.6922%)" stop-opacity="1"/>
<stop offset="0.476562" stop-color="rgb(100%, 51.13678%, 1.676941%)" stop-opacity="1"/>
<stop offset="0.484375" stop-color="rgb(100%, 51.411438%, 1.660156%)" stop-opacity="1"/>
<stop offset="0.492188" stop-color="rgb(100%, 51.695251%, 1.643372%)" stop-opacity="1"/>
<stop offset="0.5" stop-color="rgb(100%, 51.986694%, 1.626587%)" stop-opacity="1"/>
<stop offset="0.507812" stop-color="rgb(100%, 52.288818%, 1.609802%)" stop-opacity="1"/>
<stop offset="0.515625" stop-color="rgb(100%, 52.598572%, 1.593018%)" stop-opacity="1"/>
<stop offset="0.523438" stop-color="rgb(100%, 52.91748%, 1.573181%)" stop-opacity="1"/>
<stop offset="0.53125" stop-color="rgb(100%, 53.24707%, 1.553345%)" stop-opacity="1"/>
<stop offset="0.539062" stop-color="rgb(100%, 53.58429%, 1.533508%)" stop-opacity="1"/>
<stop offset="0.546875" stop-color="rgb(100%, 53.93219%, 1.513672%)" stop-opacity="1"/>
<stop offset="0.554688" stop-color="rgb(100%, 54.28772%, 1.493835%)" stop-opacity="1"/>
<stop offset="0.5625" stop-color="rgb(100%, 54.655457%, 1.472473%)" stop-opacity="1"/>
<stop offset="0.570312" stop-color="rgb(100%, 55.030823%, 1.451111%)" stop-opacity="1"/>
<stop offset="0.578125" stop-color="rgb(100%, 55.41687%, 1.428223%)" stop-opacity="1"/>
<stop offset="0.582031" stop-color="rgb(100%, 55.812073%, 1.405334%)" stop-opacity="1"/>
<stop offset="0.585938" stop-color="rgb(100%, 56.011963%, 1.393127%)" stop-opacity="1"/>
<stop offset="0.589844" stop-color="rgb(100%, 56.216431%, 1.38092%)" stop-opacity="1"/>
<stop offset="0.59375" stop-color="rgb(100%, 56.422424%, 1.370239%)" stop-opacity="1"/>
<stop offset="0.597656" stop-color="rgb(100%, 56.632996%, 1.358032%)" stop-opacity="1"/>
<stop offset="0.601562" stop-color="rgb(100%, 56.843567%, 1.345825%)" stop-opacity="1"/>
<stop offset="0.605469" stop-color="rgb(100%, 57.05719%, 1.332092%)" stop-opacity="1"/>
<stop offset="0.609375" stop-color="rgb(100%, 57.272339%, 1.319885%)" stop-opacity="1"/>
<stop offset="0.613281" stop-color="rgb(100%, 57.492065%, 1.307678%)" stop-opacity="1"/>
<stop offset="0.617188" stop-color="rgb(100%, 57.713318%, 1.295471%)" stop-opacity="1"/>
<stop offset="0.621094" stop-color="rgb(100%, 57.937622%, 1.281738%)" stop-opacity="1"/>
<stop offset="0.625" stop-color="rgb(100%, 58.163452%, 1.268005%)" stop-opacity="1"/>
<stop offset="0.628906" stop-color="rgb(100%, 58.39386%, 1.254272%)" stop-opacity="1"/>
<stop offset="0.632813" stop-color="rgb(100%, 58.624268%, 1.242065%)" stop-opacity="1"/>
<stop offset="0.636719" stop-color="rgb(100%, 58.859253%, 1.228333%)" stop-opacity="1"/>
<stop offset="0.640625" stop-color="rgb(100%, 59.094238%, 1.2146%)" stop-opacity="1"/>
<stop offset="0.644531" stop-color="rgb(100%, 59.335327%, 1.200867%)" stop-opacity="1"/>
<stop offset="0.648438" stop-color="rgb(100%, 59.576416%, 1.187134%)" stop-opacity="1"/>
<stop offset="0.652344" stop-color="rgb(100%, 59.822083%, 1.171875%)" stop-opacity="1"/>
<stop offset="0.65625" stop-color="rgb(100%, 60.067749%, 1.158142%)" stop-opacity="1"/>
<stop offset="0.660156" stop-color="rgb(100%, 60.317993%, 1.142883%)" stop-opacity="1"/>
<stop offset="0.664062" stop-color="rgb(100%, 60.569763%, 1.12915%)" stop-opacity="1"/>
<stop offset="0.667969" stop-color="rgb(100%, 60.826111%, 1.113892%)" stop-opacity="1"/>
<stop offset="0.671875" stop-color="rgb(100%, 61.082458%, 1.098633%)" stop-opacity="1"/>
<stop offset="0.675781" stop-color="rgb(100%, 61.343384%, 1.083374%)" stop-opacity="1"/>
<stop offset="0.679688" stop-color="rgb(100%, 61.605835%, 1.068115%)" stop-opacity="1"/>
<stop offset="0.683594" stop-color="rgb(100%, 61.871338%, 1.052856%)" stop-opacity="1"/>
<stop offset="0.6875" stop-color="rgb(100%, 62.138367%, 1.037598%)" stop-opacity="1"/>
<stop offset="0.691406" stop-color="rgb(100%, 62.409973%, 1.020813%)" stop-opacity="1"/>
<stop offset="0.695313" stop-color="rgb(100%, 62.683105%, 1.005554%)" stop-opacity="1"/>
<stop offset="0.699219" stop-color="rgb(100%, 62.960815%, 0.98877%)" stop-opacity="1"/>
<stop offset="0.703125" stop-color="rgb(100%, 63.238525%, 0.973511%)" stop-opacity="1"/>
<stop offset="0.707031" stop-color="rgb(100%, 63.520813%, 0.956726%)" stop-opacity="1"/>
<stop offset="0.710938" stop-color="rgb(100%, 63.804626%, 0.941467%)" stop-opacity="1"/>
<stop offset="0.714844" stop-color="rgb(100%, 64.093018%, 0.924683%)" stop-opacity="1"/>
<stop offset="0.71875" stop-color="rgb(100%, 64.381409%, 0.907898%)" stop-opacity="1"/>
<stop offset="0.722656" stop-color="rgb(100%, 64.674377%, 0.889587%)" stop-opacity="1"/>
<stop offset="0.726562" stop-color="rgb(100%, 64.968872%, 0.872803%)" stop-opacity="1"/>
<stop offset="0.730469" stop-color="rgb(100%, 65.267944%, 0.854492%)" stop-opacity="1"/>
<stop offset="0.734375" stop-color="rgb(100%, 65.568542%, 0.837708%)" stop-opacity="1"/>
<stop offset="0.738281" stop-color="rgb(100%, 65.873718%, 0.819397%)" stop-opacity="1"/>
<stop offset="0.742188" stop-color="rgb(100%, 66.178894%, 0.802612%)" stop-opacity="1"/>
<stop offset="0.746094" stop-color="rgb(100%, 66.488647%, 0.784302%)" stop-opacity="1"/>
<stop offset="0.75" stop-color="rgb(100%, 66.799927%, 0.765991%)" stop-opacity="1"/>
<stop offset="0.753906" stop-color="rgb(100%, 67.115784%, 0.747681%)" stop-opacity="1"/>
<stop offset="0.757812" stop-color="rgb(100%, 67.431641%, 0.72937%)" stop-opacity="1"/>
<stop offset="0.761719" stop-color="rgb(100%, 67.753601%, 0.71106%)" stop-opacity="1"/>
<stop offset="0.765625" stop-color="rgb(100%, 68.075562%, 0.692749%)" stop-opacity="1"/>
<stop offset="0.769531" stop-color="rgb(100%, 68.4021%, 0.672913%)" stop-opacity="1"/>
<stop offset="0.773438" stop-color="rgb(100%, 68.730164%, 0.654602%)" stop-opacity="1"/>
<stop offset="0.777344" stop-color="rgb(100%, 69.062805%, 0.634766%)" stop-opacity="1"/>
<stop offset="0.78125" stop-color="rgb(100%, 69.396973%, 0.614929%)" stop-opacity="1"/>
<stop offset="0.785156" stop-color="rgb(100%, 69.735718%, 0.595093%)" stop-opacity="1"/>
<stop offset="0.789062" stop-color="rgb(100%, 70.074463%, 0.576782%)" stop-opacity="1"/>
<stop offset="0.792969" stop-color="rgb(100%, 70.417786%, 0.55542%)" stop-opacity="1"/>
<stop offset="0.796875" stop-color="rgb(100%, 70.762634%, 0.535583%)" stop-opacity="1"/>
<stop offset="0.800781" stop-color="rgb(100%, 71.113586%, 0.515747%)" stop-opacity="1"/>
<stop offset="0.804687" stop-color="rgb(100%, 71.464539%, 0.495911%)" stop-opacity="1"/>
<stop offset="0.808594" stop-color="rgb(100%, 71.820068%, 0.474548%)" stop-opacity="1"/>
<stop offset="0.8125" stop-color="rgb(100%, 72.175598%, 0.454712%)" stop-opacity="1"/>
<stop offset="0.816406" stop-color="rgb(100%, 72.537231%, 0.43335%)" stop-opacity="1"/>
<stop offset="0.820312" stop-color="rgb(100%, 72.900391%, 0.411987%)" stop-opacity="1"/>
<stop offset="0.824219" stop-color="rgb(100%, 73.268127%, 0.390625%)" stop-opacity="1"/>
<stop offset="0.828125" stop-color="rgb(100%, 73.635864%, 0.369263%)" stop-opacity="1"/>
<stop offset="0.832031" stop-color="rgb(100%, 74.009705%, 0.346375%)" stop-opacity="1"/>
<stop offset="0.835938" stop-color="rgb(100%, 74.383545%, 0.325012%)" stop-opacity="1"/>
<stop offset="0.839844" stop-color="rgb(100%, 74.761963%, 0.30365%)" stop-opacity="1"/>
<stop offset="0.84375" stop-color="rgb(100%, 75.141907%, 0.282288%)" stop-opacity="1"/>
<stop offset="0.847656" stop-color="rgb(100%, 75.526428%, 0.259399%)" stop-opacity="1"/>
<stop offset="0.851562" stop-color="rgb(100%, 75.912476%, 0.236511%)" stop-opacity="1"/>
<stop offset="0.855469" stop-color="rgb(100%, 76.303101%, 0.213623%)" stop-opacity="1"/>
<stop offset="0.859375" stop-color="rgb(100%, 76.695251%, 0.190735%)" stop-opacity="1"/>
<stop offset="0.863281" stop-color="rgb(100%, 77.09198%, 0.167847%)" stop-opacity="1"/>
<stop offset="0.867187" stop-color="rgb(100%, 77.490234%, 0.144958%)" stop-opacity="1"/>
<stop offset="0.871094" stop-color="rgb(100%, 77.893066%, 0.120544%)" stop-opacity="1"/>
<stop offset="0.875" stop-color="rgb(100%, 78.297424%, 0.0976562%)" stop-opacity="1"/>
<stop offset="0.878906" stop-color="rgb(100%, 78.70636%, 0.0732422%)" stop-opacity="1"/>
<stop offset="0.882812" stop-color="rgb(100%, 79.116821%, 0.050354%)" stop-opacity="1"/>
<stop offset="0.886719" stop-color="rgb(100%, 79.53186%, 0.0259399%)" stop-opacity="1"/>
<stop offset="0.890625" stop-color="rgb(100%, 79.948425%, 0.00152588%)" stop-opacity="1"/>
<stop offset="0.90625" stop-color="rgb(100%, 79.972839%, 0%)" stop-opacity="1"/>
<stop offset="0.9375" stop-color="rgb(100%, 79.998779%, 0%)" stop-opacity="1"/>
<stop offset="1" stop-color="rgb(100%, 79.998779%, 0%)" stop-opacity="1"/>
</linearGradient>
<clipPath id="clip-9">
<path clip-rule="nonzero" d="M 1367 566 L 1472 566 L 1472 644 L 1367 644 Z M 1367 566 "/>
</clipPath>
<clipPath id="clip-10">
<path clip-rule="nonzero" d="M 1388.828125 643.78125 C 1381.601562 643.78125 1374.390625 642.828125 1367.390625 641.039062 C 1400.300781 634.308594 1426.929688 610.328125 1437.429688 578.96875 C 1437.539062 578.851562 1437.660156 578.730469 1437.78125 578.609375 C 1441.671875 574.53125 1445.921875 570.601562 1451.121094 568.390625 C 1453.601562 567.339844 1456.339844 566.738281 1459.039062 566.738281 C 1461.988281 566.738281 1464.878906 567.449219 1467.339844 569.078125 C 1472.039062 572.199219 1473.28125 578.710938 1470.390625 586.550781 C 1459.050781 617.289062 1429.160156 640.308594 1396.539062 643.421875 C 1393.980469 643.660156 1391.398438 643.78125 1388.828125 643.78125 "/>
</clipPath>
<clipPath id="clip-11">
<path clip-rule="nonzero" d="M 1388.828125 643.78125 C 1381.601562 643.78125 1374.390625 642.828125 1367.390625 641.039062 C 1400.300781 634.308594 1426.929688 610.328125 1437.429688 578.96875 C 1437.539062 578.851562 1437.660156 578.730469 1437.78125 578.609375 C 1441.671875 574.53125 1445.921875 570.601562 1451.121094 568.390625 C 1453.601562 567.339844 1456.339844 566.738281 1459.039062 566.738281 C 1461.988281 566.738281 1464.878906 567.449219 1467.339844 569.078125 C 1472.039062 572.199219 1473.28125 578.710938 1470.390625 586.550781 C 1459.050781 617.289062 1429.160156 640.308594 1396.539062 643.421875 C 1393.980469 643.660156 1391.398438 643.78125 1388.828125 643.78125 "/>
</clipPath>
<linearGradient id="linear-pattern-3" gradientUnits="userSpaceOnUse" x1="0.278951" y1="0" x2="0.903294" y2="0" gradientTransform="matrix(-110.307, 163.418, 163.418, 110.307, 1441.54, 478.96)">
<stop offset="0" stop-color="rgb(100%, 57.737732%, 20.318604%)" stop-opacity="1"/>
<stop offset="0.03125" stop-color="rgb(100%, 57.849121%, 20.3125%)" stop-opacity="1"/>
<stop offset="0.0625" stop-color="rgb(100%, 58.084106%, 20.298767%)" stop-opacity="1"/>
<stop offset="0.09375" stop-color="rgb(100%, 58.34198%, 20.285034%)" stop-opacity="1"/>
<stop offset="0.125" stop-color="rgb(100%, 58.621216%, 20.26825%)" stop-opacity="1"/>
<stop offset="0.15625" stop-color="rgb(100%, 58.924866%, 20.251465%)" stop-opacity="1"/>
<stop offset="0.1875" stop-color="rgb(100%, 59.249878%, 20.231628%)" stop-opacity="1"/>
<stop offset="0.21875" stop-color="rgb(100%, 59.599304%, 20.211792%)" stop-opacity="1"/>
<stop offset="0.25" stop-color="rgb(100%, 59.97467%, 20.19043%)" stop-opacity="1"/>
<stop offset="0.265625" stop-color="rgb(100%, 60.269165%, 20.173645%)" stop-opacity="1"/>
<stop offset="0.28125" stop-color="rgb(100%, 60.475159%, 20.162964%)" stop-opacity="1"/>
<stop offset="0.296875" stop-color="rgb(100%, 60.687256%, 20.150757%)" stop-opacity="1"/>
<stop offset="0.3125" stop-color="rgb(100%, 60.906982%, 20.137024%)" stop-opacity="1"/>
<stop offset="0.328125" stop-color="rgb(100%, 61.132812%, 20.124817%)" stop-opacity="1"/>
<stop offset="0.34375" stop-color="rgb(100%, 61.364746%, 20.111084%)" stop-opacity="1"/>
<stop offset="0.359375" stop-color="rgb(100%, 61.602783%, 20.097351%)" stop-opacity="1"/>
<stop offset="0.375" stop-color="rgb(100%, 61.84845%, 20.083618%)" stop-opacity="1"/>
<stop offset="0.390625" stop-color="rgb(100%, 62.10022%, 20.069885%)" stop-opacity="1"/>
<stop offset="0.40625" stop-color="rgb(100%, 62.359619%, 20.054626%)" stop-opacity="1"/>
<stop offset="0.421875" stop-color="rgb(100%, 62.625122%, 20.039368%)" stop-opacity="1"/>
<stop offset="0.4375" stop-color="rgb(100%, 62.896729%, 20.024109%)" stop-opacity="1"/>
<stop offset="0.453125" stop-color="rgb(100%, 63.175964%, 20.007324%)" stop-opacity="1"/>
<stop offset="0.46875" stop-color="rgb(100%, 63.46283%, 19.99054%)" stop-opacity="1"/>
<stop offset="0.484375" stop-color="rgb(100%, 63.755798%, 19.973755%)" stop-opacity="1"/>
<stop offset="0.5" stop-color="rgb(100%, 64.056396%, 19.95697%)" stop-opacity="1"/>
<stop offset="0.515625" stop-color="rgb(100%, 64.364624%, 19.940186%)" stop-opacity="1"/>
<stop offset="0.53125" stop-color="rgb(100%, 64.678955%, 19.921875%)" stop-opacity="1"/>
<stop offset="0.546875" stop-color="rgb(100%, 65.000916%, 19.903564%)" stop-opacity="1"/>
<stop offset="0.5625" stop-color="rgb(100%, 65.330505%, 19.885254%)" stop-opacity="1"/>
<stop offset="0.578125" stop-color="rgb(100%, 65.666199%, 19.865417%)" stop-opacity="1"/>
<stop offset="0.59375" stop-color="rgb(100%, 66.011047%, 19.845581%)" stop-opacity="1"/>
<stop offset="0.609375" stop-color="rgb(100%, 66.362%, 19.825745%)" stop-opacity="1"/>
<stop offset="0.625" stop-color="rgb(100%, 66.720581%, 19.805908%)" stop-opacity="1"/>
<stop offset="0.640625" stop-color="rgb(100%, 67.086792%, 19.784546%)" stop-opacity="1"/>
<stop offset="0.65625" stop-color="rgb(100%, 67.460632%, 19.763184%)" stop-opacity="1"/>
<stop offset="0.671875" stop-color="rgb(100%, 67.842102%, 19.741821%)" stop-opacity="1"/>
<stop offset="0.679687" stop-color="rgb(100%, 68.133545%, 19.725037%)" stop-opacity="1"/>
<stop offset="0.6875" stop-color="rgb(100%, 68.328857%, 19.71283%)" stop-opacity="1"/>
<stop offset="0.695312" stop-color="rgb(100%, 68.527222%, 19.702148%)" stop-opacity="1"/>
<stop offset="0.703125" stop-color="rgb(100%, 68.728638%, 19.689941%)" stop-opacity="1"/>
<stop offset="0.710938" stop-color="rgb(100%, 68.930054%, 19.67926%)" stop-opacity="1"/>
<stop offset="0.71875" stop-color="rgb(100%, 69.134521%, 19.667053%)" stop-opacity="1"/>
<stop offset="0.726563" stop-color="rgb(100%, 69.340515%, 19.656372%)" stop-opacity="1"/>
<stop offset="0.734375" stop-color="rgb(100%, 69.548035%, 19.644165%)" stop-opacity="1"/>
<stop offset="0.742188" stop-color="rgb(100%, 69.758606%, 19.631958%)" stop-opacity="1"/>
<stop offset="0.75" stop-color="rgb(100%, 69.970703%, 19.619751%)" stop-opacity="1"/>
<stop offset="0.757812" stop-color="rgb(100%, 70.184326%, 19.607544%)" stop-opacity="1"/>
<stop offset="0.765625" stop-color="rgb(100%, 70.401001%, 19.595337%)" stop-opacity="1"/>
<stop offset="0.773437" stop-color="rgb(100%, 70.617676%, 19.58313%)" stop-opacity="1"/>
<stop offset="0.78125" stop-color="rgb(100%, 70.837402%, 19.569397%)" stop-opacity="1"/>
<stop offset="0.789062" stop-color="rgb(100%, 71.060181%, 19.55719%)" stop-opacity="1"/>
<stop offset="0.796875" stop-color="rgb(100%, 71.282959%, 19.544983%)" stop-opacity="1"/>
<stop offset="0.804688" stop-color="rgb(100%, 71.508789%, 19.53125%)" stop-opacity="1"/>
<stop offset="0.8125" stop-color="rgb(100%, 71.737671%, 19.519043%)" stop-opacity="1"/>
<stop offset="0.820313" stop-color="rgb(100%, 71.966553%, 19.50531%)" stop-opacity="1"/>
<stop offset="0.828125" stop-color="rgb(100%, 72.198486%, 19.491577%)" stop-opacity="1"/>
<stop offset="0.835938" stop-color="rgb(100%, 72.433472%, 19.47937%)" stop-opacity="1"/>
<stop offset="0.84375" stop-color="rgb(100%, 72.668457%, 19.465637%)" stop-opacity="1"/>
<stop offset="0.851562" stop-color="rgb(100%, 72.906494%, 19.451904%)" stop-opacity="1"/>
<stop offset="0.859375" stop-color="rgb(100%, 73.146057%, 19.438171%)" stop-opacity="1"/>
<stop offset="0.867188" stop-color="rgb(100%, 73.388672%, 19.424438%)" stop-opacity="1"/>
<stop offset="0.875" stop-color="rgb(100%, 73.632812%, 19.410706%)" stop-opacity="1"/>
<stop offset="0.882813" stop-color="rgb(100%, 73.878479%, 19.395447%)" stop-opacity="1"/>
<stop offset="0.890625" stop-color="rgb(100%, 74.125671%, 19.381714%)" stop-opacity="1"/>
<stop offset="0.898438" stop-color="rgb(100%, 74.375916%, 19.367981%)" stop-opacity="1"/>
<stop offset="0.90625" stop-color="rgb(100%, 74.629211%, 19.352722%)" stop-opacity="1"/>
<stop offset="0.914062" stop-color="rgb(100%, 74.882507%, 19.338989%)" stop-opacity="1"/>
<stop offset="0.921875" stop-color="rgb(100%, 75.138855%, 19.32373%)" stop-opacity="1"/>
<stop offset="0.929688" stop-color="rgb(100%, 75.398254%, 19.309998%)" stop-opacity="1"/>
<stop offset="0.9375" stop-color="rgb(100%, 75.657654%, 19.294739%)" stop-opacity="1"/>
<stop offset="0.945313" stop-color="rgb(100%, 75.920105%, 19.27948%)" stop-opacity="1"/>
<stop offset="0.953125" stop-color="rgb(100%, 76.185608%, 19.264221%)" stop-opacity="1"/>
<stop offset="0.960938" stop-color="rgb(100%, 76.452637%, 19.248962%)" stop-opacity="1"/>
<stop offset="0.96875" stop-color="rgb(100%, 76.721191%, 19.233704%)" stop-opacity="1"/>
<stop offset="0.976562" stop-color="rgb(100%, 76.992798%, 19.218445%)" stop-opacity="1"/>
<stop offset="0.984375" stop-color="rgb(100%, 77.26593%, 19.203186%)" stop-opacity="1"/>
<stop offset="0.992188" stop-color="rgb(100%, 77.540588%, 19.186401%)" stop-opacity="1"/>
<stop offset="1" stop-color="rgb(100%, 77.818298%, 19.171143%)" stop-opacity="1"/>
</linearGradient>
<clipPath id="clip-12">
<path clip-rule="nonzero" d="M 1384 232 L 1574 232 L 1574 474 L 1384 474 Z M 1384 232 "/>
</clipPath>
<clipPath id="clip-13">
<path clip-rule="nonzero" d="M 1384.140625 349.679688 C 1459.671875 360.75 1529.210938 407.371094 1568.148438 473.03125 C 1574.421875 408.289062 1574.839844 342.980469 1569.410156 278.160156 C 1568.128906 262.871094 1565.300781 245.511719 1552.390625 237.199219 C 1536.429688 226.929688 1515.46875 236.679688 1499.691406 247.25 C 1457.121094 275.78125 1418.929688 310.820312 1384.140625 349.679688 Z M 1384.140625 349.679688 "/>
</clipPath>
<clipPath id="clip-14">
<path clip-rule="nonzero" d="M 1384.140625 349.679688 C 1459.671875 360.75 1529.210938 407.371094 1568.148438 473.03125 C 1574.421875 408.289062 1574.839844 342.980469 1569.410156 278.160156 C 1568.128906 262.871094 1565.300781 245.511719 1552.390625 237.199219 C 1536.429688 226.929688 1515.46875 236.679688 1499.691406 247.25 C 1457.121094 275.78125 1418.929688 310.820312 1384.140625 349.679688 "/>
</clipPath>
<linearGradient id="linear-pattern-4" gradientUnits="userSpaceOnUse" x1="-0.107248" y1="0" x2="1.113075" y2="0" gradientTransform="matrix(-139.265, -212.797, 212.797, -139.265, 1568.58, 444.53)">
<stop offset="0" stop-color="rgb(97.253418%, 75.292969%, 61.567688%)" stop-opacity="1"/>
<stop offset="0.0625" stop-color="rgb(97.253418%, 75.292969%, 61.567688%)" stop-opacity="1"/>
<stop offset="0.09375" stop-color="rgb(97.239685%, 75.222778%, 61.599731%)" stop-opacity="1"/>
<stop offset="0.109375" stop-color="rgb(97.187805%, 74.964905%, 61.717224%)" stop-opacity="1"/>
<stop offset="0.125" stop-color="rgb(97.113037%, 74.591064%, 61.889648%)" stop-opacity="1"/>
<stop offset="0.140625" stop-color="rgb(97.038269%, 74.217224%, 62.062073%)" stop-opacity="1"/>
<stop offset="0.15625" stop-color="rgb(96.963501%, 73.843384%, 62.234497%)" stop-opacity="1"/>
<stop offset="0.171875" stop-color="rgb(96.888733%, 73.469543%, 62.405396%)" stop-opacity="1"/>
<stop offset="0.1875" stop-color="rgb(96.813965%, 73.095703%, 62.57782%)" stop-opacity="1"/>
<stop offset="0.203125" stop-color="rgb(96.739197%, 72.721863%, 62.750244%)" stop-opacity="1"/>
<stop offset="0.21875" stop-color="rgb(96.664429%, 72.348022%, 62.921143%)" stop-opacity="1"/>
<stop offset="0.234375" stop-color="rgb(96.589661%, 71.974182%, 63.093567%)" stop-opacity="1"/>
<stop offset="0.25" stop-color="rgb(96.514893%, 71.600342%, 63.265991%)" stop-opacity="1"/>
<stop offset="0.265625" stop-color="rgb(96.440125%, 71.226501%, 63.438416%)" stop-opacity="1"/>
<stop offset="0.28125" stop-color="rgb(96.365356%, 70.852661%, 63.609314%)" stop-opacity="1"/>
<stop offset="0.296875" stop-color="rgb(96.290588%, 70.478821%, 63.781738%)" stop-opacity="1"/>
<stop offset="0.3125" stop-color="rgb(96.21582%, 70.10498%, 63.954163%)" stop-opacity="1"/>
<stop offset="0.328125" stop-color="rgb(96.141052%, 69.73114%, 64.125061%)" stop-opacity="1"/>
<stop offset="0.34375" stop-color="rgb(96.066284%, 69.3573%, 64.297485%)" stop-opacity="1"/>
<stop offset="0.359375" stop-color="rgb(95.991516%, 68.983459%, 64.46991%)" stop-opacity="1"/>
<stop offset="0.375" stop-color="rgb(95.916748%, 68.609619%, 64.640808%)" stop-opacity="1"/>
<stop offset="0.390625" stop-color="rgb(95.84198%, 68.235779%, 64.813232%)" stop-opacity="1"/>
<stop offset="0.40625" stop-color="rgb(95.767212%, 67.861938%, 64.985657%)" stop-opacity="1"/>
<stop offset="0.421875" stop-color="rgb(95.692444%, 67.488098%, 65.158081%)" stop-opacity="1"/>
<stop offset="0.4375" stop-color="rgb(95.617676%, 67.114258%, 65.328979%)" stop-opacity="1"/>
<stop offset="0.453125" stop-color="rgb(95.542908%, 66.740417%, 65.501404%)" stop-opacity="1"/>
<stop offset="0.46875" stop-color="rgb(95.46814%, 66.366577%, 65.673828%)" stop-opacity="1"/>
<stop offset="0.484375" stop-color="rgb(95.393372%, 65.992737%, 65.844727%)" stop-opacity="1"/>
<stop offset="0.5" stop-color="rgb(95.318604%, 65.618896%, 66.017151%)" stop-opacity="1"/>
<stop offset="0.515625" stop-color="rgb(95.243835%, 65.245056%, 66.189575%)" stop-opacity="1"/>
<stop offset="0.53125" stop-color="rgb(95.169067%, 64.871216%, 66.362%)" stop-opacity="1"/>
<stop offset="0.546875" stop-color="rgb(95.094299%, 64.497375%, 66.532898%)" stop-opacity="1"/>
<stop offset="0.5625" stop-color="rgb(95.019531%, 64.123535%, 66.705322%)" stop-opacity="1"/>
<stop offset="0.578125" stop-color="rgb(94.944763%, 63.749695%, 66.877747%)" stop-opacity="1"/>
<stop offset="0.59375" stop-color="rgb(94.869995%, 63.375854%, 67.048645%)" stop-opacity="1"/>
<stop offset="0.609375" stop-color="rgb(94.795227%, 63.002014%, 67.221069%)" stop-opacity="1"/>
<stop offset="0.625" stop-color="rgb(94.720459%, 62.628174%, 67.393494%)" stop-opacity="1"/>
<stop offset="0.640625" stop-color="rgb(94.645691%, 62.254333%, 67.565918%)" stop-opacity="1"/>
<stop offset="0.65625" stop-color="rgb(94.570923%, 61.880493%, 67.736816%)" stop-opacity="1"/>
<stop offset="0.671875" stop-color="rgb(94.496155%, 61.506653%, 67.909241%)" stop-opacity="1"/>
<stop offset="0.6875" stop-color="rgb(94.421387%, 61.131287%, 68.081665%)" stop-opacity="1"/>
<stop offset="0.703125" stop-color="rgb(94.346619%, 60.757446%, 68.252563%)" stop-opacity="1"/>
<stop offset="0.71875" stop-color="rgb(94.271851%, 60.383606%, 68.424988%)" stop-opacity="1"/>
<stop offset="0.734375" stop-color="rgb(94.197083%, 60.009766%, 68.597412%)" stop-opacity="1"/>
<stop offset="0.75" stop-color="rgb(94.122314%, 59.635925%, 68.769836%)" stop-opacity="1"/>
<stop offset="0.765625" stop-color="rgb(94.047546%, 59.262085%, 68.940735%)" stop-opacity="1"/>
<stop offset="0.78125" stop-color="rgb(93.972778%, 58.888245%, 69.113159%)" stop-opacity="1"/>
<stop offset="0.796875" stop-color="rgb(93.89801%, 58.514404%, 69.285583%)" stop-opacity="1"/>
<stop offset="0.8125" stop-color="rgb(93.823242%, 58.140564%, 69.456482%)" stop-opacity="1"/>
<stop offset="0.828125" stop-color="rgb(93.748474%, 57.766724%, 69.628906%)" stop-opacity="1"/>
<stop offset="0.84375" stop-color="rgb(93.673706%, 57.392883%, 69.801331%)" stop-opacity="1"/>
<stop offset="0.859375" stop-color="rgb(93.598938%, 57.019043%, 69.972229%)" stop-opacity="1"/>
<stop offset="0.875" stop-color="rgb(93.52417%, 56.645203%, 70.144653%)" stop-opacity="1"/>
<stop offset="0.890625" stop-color="rgb(93.449402%, 56.271362%, 70.317078%)" stop-opacity="1"/>
<stop offset="0.90625" stop-color="rgb(93.374634%, 55.897522%, 70.489502%)" stop-opacity="1"/>
<stop offset="0.9375" stop-color="rgb(93.334961%, 55.697632%, 70.581055%)" stop-opacity="1"/>
<stop offset="1" stop-color="rgb(93.331909%, 55.685425%, 70.587158%)" stop-opacity="1"/>
</linearGradient>
<clipPath id="clip-15">
<path clip-rule="nonzero" d="M 932 218 L 1120 218 L 1120 469 L 932 469 Z M 932 218 "/>
</clipPath>
<clipPath id="clip-16">
<path clip-rule="nonzero" d="M 932.863281 468.230469 C 987.210938 421.839844 1051.179688 386.769531 1119.53125 365.910156 C 1095.039062 320.609375 1066.328125 277.589844 1033.890625 237.601562 C 1025.960938 227.820312 1015.460938 217.269531 1003 219.058594 C 989.472656 221.011719 982.601562 236.050781 978.40625 249.058594 C 955.707031 319.441406 940.761719 392.320312 932.863281 468.230469 Z M 932.863281 468.230469 "/>
</clipPath>
<clipPath id="clip-17">
<path clip-rule="nonzero" d="M 932.863281 468.230469 C 987.210938 421.839844 1051.179688 386.769531 1119.53125 365.910156 C 1095.039062 320.609375 1066.328125 277.589844 1033.890625 237.601562 C 1025.960938 227.820312 1015.460938 217.269531 1003 219.058594 C 989.472656 221.011719 982.601562 236.050781 978.40625 249.058594 C 955.707031 319.441406 940.761719 392.320312 932.863281 468.230469 "/>
</clipPath>
<linearGradient id="linear-pattern-5" gradientUnits="userSpaceOnUse" x1="-0.309879" y1="0" x2="1.172533" y2="0" gradientTransform="matrix(-167.118, -101.385, 101.385, -167.118, 1083.44, 410.94)">
<stop offset="0" stop-color="rgb(97.253418%, 75.292969%, 61.567688%)" stop-opacity="1"/>
<stop offset="0.125" stop-color="rgb(97.253418%, 75.292969%, 61.567688%)" stop-opacity="1"/>
<stop offset="0.1875" stop-color="rgb(97.253418%, 75.292969%, 61.567688%)" stop-opacity="1"/>
<stop offset="0.21875" stop-color="rgb(97.224426%, 75.151062%, 61.631775%)" stop-opacity="1"/>
<stop offset="0.226562" stop-color="rgb(97.174072%, 74.89624%, 61.749268%)" stop-opacity="1"/>
<stop offset="0.234375" stop-color="rgb(97.129822%, 74.67041%, 61.854553%)" stop-opacity="1"/>
<stop offset="0.242188" stop-color="rgb(97.084045%, 74.443054%, 61.958313%)" stop-opacity="1"/>
<stop offset="0.25" stop-color="rgb(97.038269%, 74.215698%, 62.063599%)" stop-opacity="1"/>
<stop offset="0.257812" stop-color="rgb(96.992493%, 73.988342%, 62.167358%)" stop-opacity="1"/>
<stop offset="0.265625" stop-color="rgb(96.948242%, 73.760986%, 62.272644%)" stop-opacity="1"/>
<stop offset="0.273438" stop-color="rgb(96.902466%, 73.53363%, 62.376404%)" stop-opacity="1"/>
<stop offset="0.28125" stop-color="rgb(96.856689%, 73.3078%, 62.480164%)" stop-opacity="1"/>
<stop offset="0.289062" stop-color="rgb(96.810913%, 73.080444%, 62.585449%)" stop-opacity="1"/>
<stop offset="0.296875" stop-color="rgb(96.766663%, 72.853088%, 62.689209%)" stop-opacity="1"/>
<stop offset="0.304688" stop-color="rgb(96.720886%, 72.625732%, 62.794495%)" stop-opacity="1"/>
<stop offset="0.3125" stop-color="rgb(96.67511%, 72.398376%, 62.898254%)" stop-opacity="1"/>
<stop offset="0.320312" stop-color="rgb(96.629333%, 72.172546%, 63.00354%)" stop-opacity="1"/>
<stop offset="0.328125" stop-color="rgb(96.585083%, 71.94519%, 63.1073%)" stop-opacity="1"/>
<stop offset="0.335938" stop-color="rgb(96.539307%, 71.717834%, 63.212585%)" stop-opacity="1"/>
<stop offset="0.34375" stop-color="rgb(96.49353%, 71.490479%, 63.316345%)" stop-opacity="1"/>
<stop offset="0.351562" stop-color="rgb(96.447754%, 71.263123%, 63.421631%)" stop-opacity="1"/>
<stop offset="0.359375" stop-color="rgb(96.401978%, 71.035767%, 63.525391%)" stop-opacity="1"/>
<stop offset="0.367188" stop-color="rgb(96.357727%, 70.809937%, 63.62915%)" stop-opacity="1"/>
<stop offset="0.375" stop-color="rgb(96.311951%, 70.582581%, 63.734436%)" stop-opacity="1"/>
<stop offset="0.382812" stop-color="rgb(96.266174%, 70.355225%, 63.838196%)" stop-opacity="1"/>
<stop offset="0.390625" stop-color="rgb(96.220398%, 70.127869%, 63.943481%)" stop-opacity="1"/>
<stop offset="0.398438" stop-color="rgb(96.176147%, 69.900513%, 64.047241%)" stop-opacity="1"/>
<stop offset="0.40625" stop-color="rgb(96.130371%, 69.673157%, 64.152527%)" stop-opacity="1"/>
<stop offset="0.414062" stop-color="rgb(96.084595%, 69.447327%, 64.256287%)" stop-opacity="1"/>
<stop offset="0.421875" stop-color="rgb(96.038818%, 69.219971%, 64.361572%)" stop-opacity="1"/>
<stop offset="0.429688" stop-color="rgb(95.994568%, 68.992615%, 64.465332%)" stop-opacity="1"/>
<stop offset="0.4375" stop-color="rgb(95.948792%, 68.765259%, 64.570618%)" stop-opacity="1"/>
<stop offset="0.445312" stop-color="rgb(95.903015%, 68.537903%, 64.674377%)" stop-opacity="1"/>
<stop offset="0.453125" stop-color="rgb(95.857239%, 68.312073%, 64.779663%)" stop-opacity="1"/>
<stop offset="0.460938" stop-color="rgb(95.812988%, 68.084717%, 64.883423%)" stop-opacity="1"/>
<stop offset="0.46875" stop-color="rgb(95.767212%, 67.857361%, 64.987183%)" stop-opacity="1"/>
<stop offset="0.476562" stop-color="rgb(95.721436%, 67.630005%, 65.092468%)" stop-opacity="1"/>
<stop offset="0.484375" stop-color="rgb(95.675659%, 67.402649%, 65.196228%)" stop-opacity="1"/>
<stop offset="0.492188" stop-color="rgb(95.629883%, 67.175293%, 65.301514%)" stop-opacity="1"/>
<stop offset="0.5" stop-color="rgb(95.585632%, 66.949463%, 65.405273%)" stop-opacity="1"/>
<stop offset="0.507812" stop-color="rgb(95.539856%, 66.722107%, 65.510559%)" stop-opacity="1"/>
<stop offset="0.515625" stop-color="rgb(95.49408%, 66.494751%, 65.614319%)" stop-opacity="1"/>
<stop offset="0.523438" stop-color="rgb(95.448303%, 66.267395%, 65.719604%)" stop-opacity="1"/>
<stop offset="0.53125" stop-color="rgb(95.404053%, 66.040039%, 65.823364%)" stop-opacity="1"/>
<stop offset="0.539062" stop-color="rgb(95.358276%, 65.814209%, 65.92865%)" stop-opacity="1"/>
<stop offset="0.546875" stop-color="rgb(95.3125%, 65.586853%, 66.03241%)" stop-opacity="1"/>
<stop offset="0.554688" stop-color="rgb(95.266724%, 65.359497%, 66.136169%)" stop-opacity="1"/>
<stop offset="0.5625" stop-color="rgb(95.222473%, 65.132141%, 66.241455%)" stop-opacity="1"/>
<stop offset="0.570312" stop-color="rgb(95.176697%, 64.904785%, 66.345215%)" stop-opacity="1"/>
<stop offset="0.578125" stop-color="rgb(95.13092%, 64.677429%, 66.4505%)" stop-opacity="1"/>
<stop offset="0.585938" stop-color="rgb(95.085144%, 64.451599%, 66.55426%)" stop-opacity="1"/>
<stop offset="0.59375" stop-color="rgb(95.040894%, 64.224243%, 66.659546%)" stop-opacity="1"/>
<stop offset="0.601562" stop-color="rgb(94.995117%, 63.996887%, 66.763306%)" stop-opacity="1"/>
<stop offset="0.609375" stop-color="rgb(94.949341%, 63.769531%, 66.868591%)" stop-opacity="1"/>
<stop offset="0.617188" stop-color="rgb(94.903564%, 63.542175%, 66.972351%)" stop-opacity="1"/>
<stop offset="0.625" stop-color="rgb(94.857788%, 63.314819%, 67.077637%)" stop-opacity="1"/>
<stop offset="0.632812" stop-color="rgb(94.813538%, 63.088989%, 67.181396%)" stop-opacity="1"/>
<stop offset="0.640625" stop-color="rgb(94.767761%, 62.861633%, 67.285156%)" stop-opacity="1"/>
<stop offset="0.648438" stop-color="rgb(94.721985%, 62.634277%, 67.390442%)" stop-opacity="1"/>
<stop offset="0.65625" stop-color="rgb(94.676208%, 62.406921%, 67.494202%)" stop-opacity="1"/>
<stop offset="0.664062" stop-color="rgb(94.631958%, 62.179565%, 67.599487%)" stop-opacity="1"/>
<stop offset="0.671875" stop-color="rgb(94.586182%, 61.953735%, 67.703247%)" stop-opacity="1"/>
<stop offset="0.679687" stop-color="rgb(94.540405%, 61.726379%, 67.808533%)" stop-opacity="1"/>
<stop offset="0.6875" stop-color="rgb(94.494629%, 61.499023%, 67.912292%)" stop-opacity="1"/>
<stop offset="0.695313" stop-color="rgb(94.450378%, 61.271667%, 68.017578%)" stop-opacity="1"/>
<stop offset="0.703125" stop-color="rgb(94.404602%, 61.044312%, 68.121338%)" stop-opacity="1"/>
<stop offset="0.710937" stop-color="rgb(94.358826%, 60.816956%, 68.226624%)" stop-opacity="1"/>
<stop offset="0.71875" stop-color="rgb(94.313049%, 60.591125%, 68.330383%)" stop-opacity="1"/>
<stop offset="0.726563" stop-color="rgb(94.268799%, 60.36377%, 68.435669%)" stop-opacity="1"/>
<stop offset="0.734375" stop-color="rgb(94.223022%, 60.136414%, 68.539429%)" stop-opacity="1"/>
<stop offset="0.742187" stop-color="rgb(94.177246%, 59.909058%, 68.643188%)" stop-opacity="1"/>
<stop offset="0.75" stop-color="rgb(94.13147%, 59.681702%, 68.748474%)" stop-opacity="1"/>
<stop offset="0.757813" stop-color="rgb(94.085693%, 59.454346%, 68.852234%)" stop-opacity="1"/>
<stop offset="0.765625" stop-color="rgb(94.041443%, 59.228516%, 68.95752%)" stop-opacity="1"/>
<stop offset="0.773437" stop-color="rgb(93.995667%, 59.00116%, 69.061279%)" stop-opacity="1"/>
<stop offset="0.78125" stop-color="rgb(93.94989%, 58.773804%, 69.166565%)" stop-opacity="1"/>
<stop offset="0.789063" stop-color="rgb(93.904114%, 58.546448%, 69.270325%)" stop-opacity="1"/>
<stop offset="0.796875" stop-color="rgb(93.859863%, 58.319092%, 69.37561%)" stop-opacity="1"/>
<stop offset="0.804687" stop-color="rgb(93.814087%, 58.093262%, 69.47937%)" stop-opacity="1"/>
<stop offset="0.8125" stop-color="rgb(93.768311%, 57.865906%, 69.584656%)" stop-opacity="1"/>
<stop offset="0.820313" stop-color="rgb(93.722534%, 57.63855%, 69.688416%)" stop-opacity="1"/>
<stop offset="0.828125" stop-color="rgb(93.678284%, 57.411194%, 69.792175%)" stop-opacity="1"/>
<stop offset="0.835937" stop-color="rgb(93.632507%, 57.183838%, 69.897461%)" stop-opacity="1"/>
<stop offset="0.84375" stop-color="rgb(93.586731%, 56.956482%, 70.001221%)" stop-opacity="1"/>
<stop offset="0.851563" stop-color="rgb(93.540955%, 56.730652%, 70.106506%)" stop-opacity="1"/>
<stop offset="0.859375" stop-color="rgb(93.496704%, 56.503296%, 70.210266%)" stop-opacity="1"/>
<stop offset="0.867187" stop-color="rgb(93.450928%, 56.27594%, 70.315552%)" stop-opacity="1"/>
<stop offset="0.875" stop-color="rgb(93.405151%, 56.048584%, 70.419312%)" stop-opacity="1"/>
<stop offset="1" stop-color="rgb(93.356323%, 55.810547%, 70.529175%)" stop-opacity="1"/>
</linearGradient>
</defs>
<rect x="-200" y="-200" width="2400" height="2400" fill="rgb(81.639099%, 88.671875%, 93.359375%)" fill-opacity="1"/>
<path fill-rule="nonzero" fill="rgb(0%, 0%, 0%)" fill-opacity="1" d="M 901.414062 507.75 C 895.078125 387.410156 918.625 265.609375 969.355469 156.289062 C 974.601562 144.988281 982.34375 132.109375 997.035156 135.578125 C 1001.28125 136.578125 1005.160156 138.75 1008.460938 141.589844 C 1076.828125 200.328125 1136.410156 269.269531 1185.53125 344.628906 C 1237.5 328.390625 1294.441406 328.441406 1349.328125 346.320312 C 1393.441406 257.390625 1467.789062 183.828125 1557.050781 140.441406 C 1562.679688 137.699219 1569.449219 140.308594 1571.859375 146.078125 C 1621.800781 265.78125 1640.671875 398.371094 1620.339844 531.660156 C 1641.429688 573.300781 1662.878906 622.070312 1644.089844 664.800781 C 1633.828125 688.140625 1613.191406 704.980469 1593.28125 720.898438 C 1548.851562 756.421875 1504.410156 791.941406 1459.980469 827.460938 C 1447.230469 837.640625 1433.988281 848.480469 1427.769531 863.570312 C 1422.320312 876.820312 1422.988281 891.679688 1423.761719 905.988281 C 1426.070312 949.109375 1428.378906 992.21875 1430.691406 1035.339844 C 1433.308594 1084.339844 1435.929688 1133.679688 1429.480469 1182.328125 C 1423.03125 1230.96875 1406.898438 1279.421875 1376.910156 1318.050781 C 1375.578125 1368.820312 1380.640625 1419.75 1391.539062 1470.25 C 1411.601562 1490.921875 1432.269531 1512.539062 1441.519531 1539.828125 C 1451.738281 1569.980469 1446.511719 1603.671875 1433.851562 1632.890625 C 1421.191406 1662.101562 1401.621094 1687.710938 1381.429688 1719.070312 C 1400.289062 1720.351562 1419.828125 1721.828125 1436.441406 1730.878906 C 1453.039062 1739.941406 1465.871094 1758.828125 1461.699219 1777.28125 C 1457.570312 1795.558594 1439.261719 1806.640625 1422.058594 1814.101562 C 1374.25 1834.851562 1321.53125 1844.179688 1270.949219 1843.050781 C 1237.148438 1869.691406 1191.878906 1876.121094 1148.871094 1877.769531 C 1060.558594 1881.148438 971.648438 1868.328125 889.777344 1847.761719 C 843.300781 1864.828125 794.070312 1874.398438 744.578125 1875.96875 C 673.878906 1878.21875 601.910156 1863.710938 540.425781 1828.730469 C 478.941406 1793.761719 428.636719 1737.550781 406.261719 1670.449219 C 389.671875 1620.691406 388.648438 1567.339844 382.480469 1515.25 C 376.316406 1463.171875 363.632812 1409.199219 328.785156 1370 C 304.746094 1342.960938 272.222656 1325.28125 241.042969 1306.929688 C 209.859375 1288.578125 178.40625 1268.101562 158.742188 1237.730469 C 139.078125 1207.359375 134.277344 1164.53125 156.632812 1136.078125 C 171.59375 1117.03125 196.324219 1107.410156 220.53125 1106.570312 C 244.738281 1105.730469 268.582031 1112.761719 290.941406 1122.070312 C 359.753906 1150.71875 419.890625 1203.601562 449.1875 1272.128906 C 469.425781 1319.480469 474.429688 1371.851562 476.304688 1423.308594 C 478.179688 1474.769531 477.203125 1526.640625 486.414062 1577.308594 C 495.628906 1627.96875 516.195312 1678.378906 554.347656 1712.96875 C 592.496094 1747.558594 650.554688 1762.980469 701.640625 1747.378906 C 612.265625 1646.128906 590.789062 1490.269531 649.449219 1368.621094 C 721.875 1218.441406 894.585938 1134.371094 959.734375 985.609375 C 984.539062 928.339844 1004.699219 869.050781 1022.03125 804.878906 C 982.441406 776.328125 944.316406 745.738281 907.863281 713.28125 C 888.34375 695.898438 868.640625 677 859.828125 652.398438 C 850.984375 627.710938 854.355469 599.960938 863.75 575.46875 C 873.140625 550.988281 888.152344 529.128906 901.414062 507.75 "/>
<g clip-path="url(#clip-0)">
<g clip-path="url(#clip-1)">
<g clip-path="url(#clip-2)">
<path fill-rule="nonzero" fill="url(#linear-pattern-0)" d="M 1150.832031 377.257812 L 935.042969 522.914062 L 1080.699219 738.699219 L 1296.488281 593.042969 Z M 1150.832031 377.257812 "/>
</g>
</g>
</g>
<path fill-rule="nonzero" fill="rgb(0%, 0%, 0%)" fill-opacity="1" d="M 1115.769531 464.21875 C 1083.828125 479.160156 1061.699219 511.578125 1061.699219 549.179688 C 1061.699219 600.960938 1103.679688 642.941406 1155.460938 642.941406 C 1187.398438 627.988281 1209.53125 595.570312 1209.53125 557.980469 C 1209.53125 506.199219 1167.550781 464.21875 1115.769531 464.21875 "/>
<path fill-rule="nonzero" fill="rgb(100%, 100%, 100%)" fill-opacity="1" d="M 1152.121094 553.578125 C 1152.121094 545.351562 1158.789062 538.679688 1167.019531 538.679688 C 1175.25 538.679688 1181.921875 545.351562 1181.921875 553.578125 C 1181.921875 561.808594 1175.25 568.480469 1167.019531 568.480469 C 1158.789062 568.480469 1152.121094 561.808594 1152.121094 553.578125 "/>
<path fill-rule="nonzero" fill="rgb(100%, 100%, 100%)" fill-opacity="1" d="M 1109.640625 489.671875 C 1117.128906 480.601562 1131.628906 480.679688 1143.289062 482.21875 C 1154.960938 483.761719 1165.910156 492.308594 1172.601562 501.988281 C 1175.289062 505.890625 1177.128906 510.738281 1176.070312 515.359375 C 1175.011719 519.988281 1170.25 523.898438 1165.648438 522.730469 C 1160.828125 521.511719 1158.691406 516.011719 1155.191406 512.480469 C 1150.351562 507.609375 1142.890625 506.601562 1136.019531 506.609375 C 1129.148438 506.609375 1122.050781 507.308594 1115.628906 504.878906 C 1109.199219 502.449219 1103.960938 496.550781 1109.640625 489.671875 "/>
<g clip-path="url(#clip-3)">
<g clip-path="url(#clip-4)">
<g clip-path="url(#clip-5)">
<path fill-rule="nonzero" fill="url(#linear-pattern-1)" d="M 1103.429688 517.640625 L 994.964844 590.855469 L 1063.832031 692.878906 L 1172.292969 619.664062 Z M 1103.429688 517.640625 "/>
</g>
</g>
</g>
<path fill-rule="nonzero" fill="rgb(18.821716%, 18.821716%, 18.821716%)" fill-opacity="1" d="M 1136.570312 641.039062 C 1103.660156 634.308594 1077.039062 610.328125 1066.53125 578.96875 C 1070.308594 582.941406 1073.929688 587.109375 1078.351562 590.339844 C 1086.011719 595.921875 1095.320312 598.121094 1104.859375 598.121094 C 1112.019531 598.121094 1119.320312 596.878906 1126.148438 594.898438 C 1142.078125 590.300781 1156.859375 582.199219 1172.890625 577.960938 C 1175.671875 577.21875 1178.730469 576.691406 1181.679688 576.691406 C 1186.050781 576.691406 1190.179688 577.851562 1192.800781 581.21875 C 1197.238281 586.941406 1194.410156 595.300781 1190.671875 601.511719 C 1178.808594 621.140625 1158.738281 635.351562 1136.570312 641.039062 "/>
<g clip-path="url(#clip-6)">
<g clip-path="url(#clip-7)">
<g clip-path="url(#clip-8)">
<path fill-rule="nonzero" fill="url(#linear-pattern-2)" d="M 1353.128906 377.257812 L 1568.917969 522.914062 L 1423.261719 738.699219 L 1207.472656 593.042969 Z M 1353.128906 377.257812 "/>
</g>
</g>
</g>
<path fill-rule="nonzero" fill="rgb(0%, 0%, 0%)" fill-opacity="1" d="M 1388.199219 464.21875 C 1420.128906 479.160156 1442.261719 511.578125 1442.261719 549.179688 C 1442.261719 600.960938 1400.28125 642.941406 1348.5 642.941406 C 1316.558594 627.988281 1294.429688 595.570312 1294.429688 557.980469 C 1294.429688 506.199219 1336.410156 464.21875 1388.199219 464.21875 "/>
<path fill-rule="nonzero" fill="rgb(100%, 100%, 100%)" fill-opacity="1" d="M 1351.851562 553.578125 C 1351.851562 545.351562 1345.171875 538.679688 1336.949219 538.679688 C 1328.71875 538.679688 1322.050781 545.351562 1322.050781 553.578125 C 1322.050781 561.808594 1328.71875 568.480469 1336.949219 568.480469 C 1345.171875 568.480469 1351.851562 561.808594 1351.851562 553.578125 "/>
<path fill-rule="nonzero" fill="rgb(100%, 100%, 100%)" fill-opacity="1" d="M 1394.320312 489.671875 C 1386.828125 480.601562 1372.328125 480.679688 1360.671875 482.21875 C 1349.011719 483.761719 1338.050781 492.308594 1331.359375 501.988281 C 1328.671875 505.890625 1326.828125 510.738281 1327.890625 515.359375 C 1328.949219 519.988281 1333.71875 523.898438 1338.308594 522.730469 C 1343.128906 521.511719 1345.269531 516.011719 1348.769531 512.480469 C 1353.609375 507.609375 1361.078125 506.601562 1367.941406 506.609375 C 1374.808594 506.609375 1381.921875 507.308594 1388.339844 504.878906 C 1394.761719 502.449219 1400 496.550781 1394.320312 489.671875 "/>
<g clip-path="url(#clip-9)">
<g clip-path="url(#clip-10)">
<g clip-path="url(#clip-11)">
<path fill-rule="nonzero" fill="url(#linear-pattern-3)" d="M 1400.535156 517.636719 L 1509.003906 590.855469 L 1440.136719 692.882812 L 1331.664062 619.664062 Z M 1400.535156 517.636719 "/>
</g>
</g>
</g>
<path fill-rule="nonzero" fill="rgb(18.821716%, 18.821716%, 18.821716%)" fill-opacity="1" d="M 1367.390625 641.039062 C 1345.21875 635.351562 1325.148438 621.140625 1313.300781 601.511719 C 1309.550781 595.300781 1306.71875 586.941406 1311.171875 581.21875 C 1313.78125 577.851562 1317.910156 576.691406 1322.28125 576.691406 C 1325.230469 576.691406 1328.289062 577.21875 1331.070312 577.960938 C 1347.109375 582.199219 1361.878906 590.300781 1377.808594 594.898438 C 1384.640625 596.878906 1391.941406 598.121094 1399.101562 598.121094 C 1408.648438 598.121094 1417.960938 595.921875 1425.609375 590.339844 C 1430.039062 587.109375 1433.660156 582.941406 1437.429688 578.96875 C 1426.929688 610.328125 1400.300781 634.308594 1367.390625 641.039062 "/>
<path fill-rule="nonzero" fill="rgb(93.359375%, 55.664062%, 70.506287%)" fill-opacity="1" d="M 1248.320312 626.550781 C 1251.238281 623.929688 1254.359375 621.269531 1258.160156 620.300781 C 1261.960938 619.320312 1266.628906 620.558594 1268.351562 624.089844 C 1269.949219 627.359375 1268.578125 631.269531 1266.910156 634.5 C 1264.308594 639.539062 1261.011719 644.179688 1257.730469 648.808594 C 1256.910156 649.960938 1256.050781 651.148438 1254.808594 651.839844 C 1251.898438 653.460938 1248.308594 651.730469 1245.53125 649.878906 C 1242.21875 647.679688 1239 645.230469 1236.601562 642.050781 C 1234.210938 638.871094 1232.699219 634.859375 1233.210938 630.910156 C 1233.71875 626.96875 1236.519531 623.21875 1240.390625 622.289062 C 1244.261719 621.359375 1248.828125 623.910156 1248.320312 626.550781 "/>
<g clip-path="url(#clip-12)">
<g clip-path="url(#clip-13)">
<g clip-path="url(#clip-14)">
<path fill-rule="nonzero" fill="url(#linear-pattern-4)" d="M 1441.324219 560.410156 L 1687.601562 399.230469 L 1517.65625 139.550781 L 1271.375 300.726562 Z M 1441.324219 560.410156 "/>
</g>
</g>
</g>
<g clip-path="url(#clip-15)">
<g clip-path="url(#clip-16)">
<g clip-path="url(#clip-17)">
<path fill-rule="nonzero" fill="url(#linear-pattern-5)" d="M 1069.3125 551.007812 L 1230.820312 284.785156 L 983.082031 134.492188 L 821.574219 400.714844 Z M 1069.3125 551.007812 "/>
</g>
</g>
</g>
</svg>
